<svg xmlns="http://www.w3.org/2000/svg" xmlns:xlink="http://www.w3.org/1999/xlink" width="500" zoomAndPan="magnify" viewBox="0 0 375 374.999991" height="500" preserveAspectRatio="xMidYMid meet" version="1.0"><defs><g/><clipPath id="id1"><path d="M 122 100 L 237 100 L 237 215 L 122 215 Z M 122 100 " clip-rule="nonzero"/></clipPath><clipPath id="id2"><path d="M 109.859375 157.136719 L 202.722656 91.015625 L 259.273438 170.441406 L 166.410156 236.5625 Z M 109.859375 157.136719 " clip-rule="nonzero"/></clipPath><clipPath id="id3"><path d="M 100.304688 143.71875 L 193.167969 77.597656 L 259.289062 170.460938 L 166.421875 236.582031 Z M 100.304688 143.71875 " clip-rule="nonzero"/></clipPath><clipPath id="id4"><path d="M 125.320312 93.386719 L 177 93.386719 L 177 139.886719 L 125.320312 139.886719 Z M 125.320312 93.386719 " clip-rule="nonzero"/></clipPath></defs><rect x="-37.5" width="450" fill="rgb(100%, 100%, 100%)" y="-37.499999" height="449.999989" fill-opacity="1"/><rect x="-37.5" width="450" fill="rgb(93.728638%, 92.158508%, 92.549133%)" y="-37.499999" height="449.999989" fill-opacity="1"/><rect x="-37.5" width="450" fill="rgb(100%, 100%, 100%)" y="-37.499999" height="449.999989" fill-opacity="1"/><rect x="-37.5" width="450" fill="rgb(93.728638%, 92.158508%, 92.549133%)" y="-37.499999" height="449.999989" fill-opacity="1"/><g clip-path="url(#id1)"><g clip-path="url(#id2)"><g clip-path="url(#id3)"><path fill="rgb(0%, 0%, 0%)" d="M 212.839844 203.535156 C 187.257812 221.746094 151.589844 215.746094 133.351562 190.132812 C 115.117188 164.523438 121.140625 128.882812 146.71875 110.667969 C 172.300781 92.453125 207.972656 98.453125 226.1875 124.035156 C 244.453125 149.625 238.453125 185.296875 212.839844 203.535156 Z M 147.28125 111.453125 C 122.105469 129.375 116.214844 164.402344 134.136719 189.574219 C 152.0625 214.746094 187.140625 220.648438 212.28125 202.75 C 237.421875 184.847656 243.355469 149.746094 225.433594 124.574219 C 207.507812 99.402344 172.453125 93.53125 147.28125 111.453125 Z M 147.28125 111.453125 " fill-opacity="1" fill-rule="nonzero"/></g></g></g><g fill="rgb(0%, 0%, 0%)" fill-opacity="1"><g transform="translate(159.961093, 185.230637)"><g><path d="M 2.984375 0 L 2.984375 -0.703125 L 4.875 -0.703125 C 6.675781 -0.703125 7.9375 -1.082031 8.65625 -1.84375 C 9.375 -2.601562 9.734375 -4.050781 9.734375 -6.1875 L 9.734375 -43.625 C 9.734375 -45.664062 9.375 -47.066406 8.65625 -47.828125 C 7.9375 -48.597656 6.675781 -48.984375 4.875 -48.984375 L 2.984375 -48.984375 L 2.984375 -49.671875 L 36.109375 -49.671875 L 36.53125 -37.84375 L 35.828125 -37.84375 L 35.625 -41.8125 C 35.488281 -44.550781 34.921875 -46.429688 33.921875 -47.453125 C 32.921875 -48.472656 31.078125 -48.984375 28.390625 -48.984375 L 14.46875 -48.984375 L 14.46875 -24.765625 L 31.796875 -24.765625 L 31.796875 -24.078125 L 14.46875 -24.078125 L 14.46875 -6.1875 C 14.46875 -4.050781 14.828125 -2.601562 15.546875 -1.84375 C 16.265625 -1.082031 17.53125 -0.703125 19.34375 -0.703125 L 22.0625 -0.703125 L 22.0625 0 Z M 2.984375 0 "/></g></g></g><g clip-path="url(#id4)"><path fill="rgb(0%, 0%, 0%)" d="M 126.871094 136.402344 C 126.875 136.402344 126.882812 136.402344 126.886719 136.402344 C 126.886719 136.417969 126.886719 136.4375 126.882812 136.457031 C 126.878906 136.4375 126.875 136.421875 126.871094 136.402344 Z M 126.804688 136.207031 C 126.804688 136.203125 126.800781 136.195312 126.800781 136.191406 C 126.800781 136.1875 126.800781 136.1875 126.796875 136.183594 C 126.796875 136.167969 126.792969 136.148438 126.789062 136.128906 C 126.777344 136.082031 126.769531 136.03125 126.761719 135.980469 C 126.828125 135.972656 126.898438 135.960938 126.964844 135.941406 C 126.945312 136.027344 126.925781 136.109375 126.914062 136.195312 C 126.878906 136.199219 126.84375 136.203125 126.8125 136.207031 C 126.808594 136.203125 126.804688 136.195312 126.800781 136.1875 C 126.804688 136.195312 126.804688 136.203125 126.808594 136.207031 C 126.804688 136.207031 126.804688 136.207031 126.804688 136.207031 Z M 126.730469 134.882812 C 126.75 134.734375 126.777344 134.585938 126.8125 134.4375 C 126.828125 134.378906 126.84375 134.320312 126.859375 134.265625 C 126.867188 134.234375 126.878906 134.207031 126.890625 134.175781 C 126.9375 134.035156 126.992188 133.898438 127.054688 133.761719 C 127.089844 133.691406 127.121094 133.621094 127.15625 133.554688 C 127.167969 133.535156 127.175781 133.515625 127.1875 133.496094 C 127.1875 133.5 127.183594 133.5 127.183594 133.503906 C 127.183594 133.5 127.1875 133.496094 127.1875 133.496094 C 127.191406 133.492188 127.191406 133.488281 127.195312 133.484375 C 127.210938 133.457031 127.238281 133.421875 127.242188 133.417969 C 127.3125 133.3125 127.371094 133.203125 127.445312 133.097656 C 127.492188 133.03125 127.542969 132.964844 127.59375 132.898438 C 127.621094 132.867188 127.648438 132.832031 127.675781 132.800781 C 127.683594 132.792969 127.71875 132.75 127.730469 132.738281 C 127.757812 132.707031 127.785156 132.675781 127.8125 132.648438 C 127.90625 132.546875 128 132.449219 128.097656 132.351562 C 128.667969 131.765625 129.265625 131.207031 129.898438 130.6875 C 129.976562 130.621094 130.054688 130.558594 130.132812 130.496094 C 130.140625 130.492188 130.148438 130.484375 130.160156 130.472656 C 130.199219 130.445312 130.234375 130.417969 130.269531 130.386719 C 130.429688 130.265625 130.589844 130.148438 130.75 130.03125 C 131.0625 129.804688 131.382812 129.585938 131.703125 129.375 C 132.421875 128.910156 133.15625 128.472656 133.898438 128.058594 C 134.066406 127.964844 134.238281 127.875 134.410156 127.785156 C 134.4375 127.769531 134.46875 127.753906 134.496094 127.738281 C 134.507812 127.730469 134.578125 127.695312 134.589844 127.691406 C 134.683594 127.640625 134.78125 127.59375 134.875 127.546875 C 135.257812 127.359375 135.640625 127.183594 136.027344 127.003906 C 137.53125 126.3125 139.078125 125.640625 140.472656 124.65625 C 140.832031 124.402344 141.183594 124.125 141.515625 123.835938 C 141.59375 123.769531 141.65625 123.683594 141.699219 123.59375 C 141.742188 123.578125 141.789062 123.558594 141.832031 123.535156 C 142.132812 123.765625 142.410156 124.03125 142.644531 124.328125 C 142.773438 124.484375 142.886719 124.65625 142.992188 124.828125 C 142.945312 124.859375 142.910156 124.910156 142.925781 124.964844 C 142.96875 125.121094 143 125.28125 143.023438 125.445312 C 142.886719 125.40625 142.757812 125.363281 142.625 125.320312 C 142.625 125.265625 142.628906 125.214844 142.628906 125.164062 C 142.628906 125.03125 142.410156 125.097656 142.40625 125.226562 C 142.40625 125.230469 142.40625 125.234375 142.40625 125.238281 C 142.3125 125.203125 142.21875 125.167969 142.128906 125.132812 C 142.015625 125.085938 141.863281 125.273438 141.976562 125.320312 C 142.117188 125.375 142.257812 125.429688 142.402344 125.480469 C 142.398438 125.628906 142.390625 125.777344 142.378906 125.925781 C 142.238281 125.886719 142.105469 125.839844 141.980469 125.78125 C 141.980469 125.722656 141.925781 125.710938 141.871094 125.730469 C 141.839844 125.714844 141.808594 125.695312 141.777344 125.679688 C 141.675781 125.621094 141.523438 125.808594 141.628906 125.867188 C 141.671875 125.890625 141.710938 125.914062 141.753906 125.933594 C 141.734375 126.117188 141.71875 126.300781 141.703125 126.484375 C 141.46875 126.421875 141.25 126.328125 141.054688 126.207031 C 140.953125 126.144531 140.804688 126.332031 140.90625 126.394531 C 140.996094 126.453125 141.089844 126.5 141.1875 126.542969 C 141.183594 126.554688 141.179688 126.5625 141.179688 126.574219 C 141.183594 126.6875 141.179688 126.800781 141.175781 126.914062 C 140.933594 126.855469 140.695312 126.796875 140.453125 126.742188 C 140.328125 126.710938 140.226562 126.917969 140.351562 126.945312 C 140.441406 126.96875 140.527344 126.988281 140.617188 127.007812 C 140.609375 127.269531 140.597656 127.527344 140.578125 127.789062 C 140.433594 127.753906 140.292969 127.710938 140.15625 127.660156 C 140.167969 127.59375 140.179688 127.53125 140.1875 127.464844 C 140.210938 127.332031 139.996094 127.34375 139.972656 127.476562 C 139.96875 127.507812 139.960938 127.542969 139.957031 127.574219 C 139.882812 127.539062 139.808594 127.5 139.738281 127.457031 C 139.632812 127.394531 139.484375 127.582031 139.589844 127.644531 C 139.691406 127.707031 139.804688 127.765625 139.917969 127.8125 C 139.902344 127.90625 139.886719 128 139.871094 128.09375 C 139.714844 128.035156 139.558594 127.972656 139.414062 127.902344 C 139.304688 127.847656 139.152344 128.035156 139.261719 128.089844 C 139.445312 128.179688 139.636719 128.253906 139.832031 128.324219 C 139.800781 128.5 139.773438 128.679688 139.742188 128.859375 C 139.570312 128.828125 139.398438 128.792969 139.234375 128.75 C 139.226562 128.6875 139.226562 128.621094 139.21875 128.558594 C 139.207031 128.433594 138.984375 128.5 138.996094 128.625 C 139 128.644531 139 128.667969 139.003906 128.6875 C 138.921875 128.664062 138.84375 128.640625 138.765625 128.613281 C 138.648438 128.574219 138.546875 128.78125 138.664062 128.820312 C 138.78125 128.859375 138.898438 128.894531 139.019531 128.925781 C 139.03125 129.097656 139.039062 129.265625 139.039062 129.4375 C 138.855469 129.359375 138.6875 129.265625 138.53125 129.148438 C 138.4375 129.078125 138.289062 129.265625 138.382812 129.335938 C 138.578125 129.484375 138.796875 129.601562 139.035156 129.6875 C 139.03125 129.792969 139.03125 129.894531 139.023438 130 C 138.933594 129.976562 138.847656 129.949219 138.757812 129.921875 C 138.75 129.804688 138.730469 129.691406 138.691406 129.589844 C 138.644531 129.476562 138.433594 129.589844 138.476562 129.703125 C 138.496094 129.746094 138.507812 129.792969 138.515625 129.84375 C 138.351562 129.785156 138.1875 129.726562 138.027344 129.664062 C 137.914062 129.617188 137.761719 129.804688 137.878906 129.851562 C 138.09375 129.9375 138.3125 130.015625 138.535156 130.089844 C 138.535156 130.179688 138.523438 130.273438 138.511719 130.371094 C 138.507812 130.378906 138.507812 130.386719 138.507812 130.394531 C 138.242188 130.339844 137.976562 130.285156 137.710938 130.234375 C 137.582031 130.207031 137.480469 130.414062 137.609375 130.4375 C 137.625 130.441406 137.640625 130.445312 137.660156 130.449219 C 137.632812 130.589844 137.605469 130.726562 137.578125 130.867188 C 137.535156 130.84375 137.496094 130.820312 137.460938 130.796875 C 137.359375 130.734375 137.207031 130.921875 137.308594 130.988281 C 137.378906 131.03125 137.449219 131.070312 137.523438 131.105469 C 137.496094 131.21875 137.46875 131.332031 137.441406 131.445312 C 137.222656 131.382812 137.003906 131.3125 136.792969 131.238281 C 136.675781 131.195312 136.574219 131.402344 136.691406 131.445312 C 136.730469 131.457031 136.769531 131.46875 136.808594 131.484375 C 136.757812 131.492188 136.707031 131.527344 136.691406 131.585938 C 136.660156 131.703125 136.628906 131.820312 136.597656 131.9375 C 136.535156 131.910156 136.472656 131.878906 136.410156 131.84375 C 136.304688 131.785156 136.15625 131.972656 136.261719 132.03125 C 136.347656 132.082031 136.441406 132.125 136.535156 132.164062 C 136.5 132.292969 136.464844 132.421875 136.429688 132.546875 C 136.167969 132.453125 135.914062 132.34375 135.671875 132.21875 C 135.566406 132.160156 135.414062 132.351562 135.523438 132.40625 C 135.792969 132.546875 136.074219 132.667969 136.367188 132.769531 C 136.332031 132.890625 136.296875 133.015625 136.261719 133.136719 C 136.109375 133.09375 135.960938 133.039062 135.820312 132.976562 C 135.824219 132.964844 135.824219 132.953125 135.828125 132.941406 C 135.847656 132.832031 135.707031 132.820312 135.640625 132.894531 C 135.5625 132.851562 135.484375 132.808594 135.410156 132.761719 C 135.308594 132.699219 135.15625 132.886719 135.261719 132.949219 C 135.363281 133.015625 135.46875 133.070312 135.582031 133.121094 C 135.554688 133.265625 135.527344 133.40625 135.496094 133.550781 C 135.347656 133.476562 135.203125 133.394531 135.066406 133.304688 C 134.96875 133.238281 134.820312 133.425781 134.917969 133.492188 C 135.082031 133.605469 135.257812 133.699219 135.445312 133.785156 C 135.414062 133.917969 135.378906 134.050781 135.34375 134.183594 C 135.222656 134.144531 135.097656 134.101562 134.976562 134.054688 C 134.984375 134.023438 134.992188 133.988281 135 133.953125 C 135.023438 133.820312 134.808594 133.832031 134.78125 133.964844 C 134.78125 133.96875 134.78125 133.972656 134.78125 133.976562 C 134.734375 133.957031 134.6875 133.941406 134.640625 133.917969 C 134.527344 133.871094 134.378906 134.058594 134.492188 134.109375 C 134.570312 134.140625 134.648438 134.175781 134.730469 134.207031 C 134.695312 134.351562 134.65625 134.496094 134.613281 134.636719 C 134.441406 134.554688 134.277344 134.457031 134.125 134.347656 C 134.058594 134.292969 133.957031 134.382812 133.949219 134.460938 C 133.925781 134.476562 133.910156 134.5 133.902344 134.53125 C 133.867188 134.679688 133.828125 134.824219 133.785156 134.972656 C 133.660156 134.890625 133.539062 134.804688 133.429688 134.707031 C 133.339844 134.632812 133.152344 134.789062 133.242188 134.867188 C 133.386719 134.988281 133.542969 135.101562 133.707031 135.203125 C 133.667969 135.320312 133.625 135.4375 133.578125 135.550781 C 133.363281 135.433594 133.160156 135.300781 132.972656 135.144531 C 132.90625 135.089844 132.808594 135.179688 132.796875 135.257812 C 132.757812 135.261719 132.714844 135.289062 132.6875 135.335938 C 132.632812 135.453125 132.578125 135.566406 132.519531 135.683594 C 132.445312 135.636719 132.367188 135.59375 132.292969 135.542969 C 132.195312 135.480469 132.042969 135.667969 132.144531 135.734375 C 132.234375 135.789062 132.324219 135.84375 132.414062 135.898438 C 132.339844 136.054688 132.261719 136.210938 132.1875 136.367188 C 132.023438 136.285156 131.863281 136.199219 131.710938 136.105469 C 131.640625 136.0625 131.550781 136.132812 131.53125 136.203125 C 131.480469 136.164062 131.363281 136.195312 131.335938 136.292969 C 131.296875 136.453125 131.246094 136.613281 131.179688 136.769531 C 131.070312 136.710938 130.964844 136.648438 130.863281 136.582031 C 130.847656 136.574219 130.828125 136.570312 130.8125 136.570312 C 130.769531 136.53125 130.667969 136.542969 130.617188 136.628906 C 130.550781 136.742188 130.480469 136.851562 130.410156 136.960938 C 130.359375 136.882812 130.316406 136.800781 130.277344 136.714844 C 130.230469 136.605469 130.019531 136.71875 130.066406 136.828125 C 130.121094 136.953125 130.1875 137.070312 130.261719 137.179688 C 130.125 137.378906 129.976562 137.574219 129.820312 137.765625 C 129.679688 137.625 129.554688 137.46875 129.449219 137.296875 C 129.550781 137.144531 129.640625 136.984375 129.714844 136.824219 C 129.773438 136.691406 129.578125 136.648438 129.515625 136.78125 C 129.464844 136.894531 129.40625 137 129.34375 137.105469 C 129.328125 137.082031 129.3125 137.054688 129.300781 137.027344 C 129.25 136.917969 129.039062 137.03125 129.089844 137.140625 C 129.121094 137.210938 129.15625 137.273438 129.191406 137.339844 C 129.089844 137.484375 128.972656 137.625 128.84375 137.753906 C 128.738281 137.601562 128.648438 137.433594 128.582031 137.257812 C 128.6875 137.109375 128.789062 136.960938 128.886719 136.808594 C 128.917969 136.753906 128.886719 136.695312 128.835938 136.683594 C 128.78125 136.671875 128.722656 136.710938 128.6875 136.765625 C 128.632812 136.855469 128.570312 136.945312 128.507812 137.035156 C 128.5 137.003906 128.492188 136.972656 128.484375 136.941406 C 128.453125 136.820312 128.242188 136.9375 128.273438 137.054688 C 128.289062 137.132812 128.3125 137.203125 128.335938 137.277344 C 128.242188 137.402344 128.148438 137.527344 128.050781 137.648438 C 127.996094 137.480469 127.957031 137.308594 127.929688 137.132812 C 128.085938 136.972656 128.242188 136.808594 128.390625 136.640625 C 128.496094 136.527344 128.332031 136.433594 128.226562 136.546875 C 128.121094 136.667969 128.011719 136.785156 127.902344 136.898438 C 127.890625 136.761719 127.886719 136.621094 127.890625 136.476562 C 127.902344 136.464844 127.914062 136.453125 127.925781 136.4375 C 128.027344 136.320312 127.863281 136.226562 127.761719 136.347656 C 127.589844 136.546875 127.359375 136.703125 127.121094 136.796875 C 127.101562 136.660156 127.097656 136.515625 127.109375 136.371094 C 127.214844 136.355469 127.320312 136.34375 127.425781 136.328125 C 127.488281 136.320312 127.546875 136.277344 127.558594 136.21875 C 127.574219 136.164062 127.535156 136.109375 127.476562 136.117188 C 127.363281 136.132812 127.246094 136.148438 127.132812 136.164062 C 127.148438 136.070312 127.167969 135.972656 127.195312 135.871094 C 127.199219 135.867188 127.195312 135.863281 127.199219 135.855469 C 127.253906 135.828125 127.289062 135.757812 127.269531 135.710938 C 127.25 135.664062 127.195312 135.652344 127.132812 135.679688 C 127.117188 135.6875 127.097656 135.695312 127.082031 135.703125 C 127.078125 135.707031 127.066406 135.710938 127.0625 135.710938 C 127.054688 135.714844 127.042969 135.71875 127.035156 135.722656 C 127 135.734375 126.960938 135.746094 126.925781 135.753906 C 126.90625 135.757812 126.886719 135.761719 126.867188 135.765625 C 126.863281 135.769531 126.859375 135.769531 126.855469 135.769531 C 126.847656 135.769531 126.835938 135.769531 126.828125 135.773438 C 126.792969 135.777344 126.761719 135.777344 126.730469 135.78125 C 126.707031 135.578125 126.699219 135.371094 126.703125 135.15625 C 126.707031 135.121094 126.707031 135.089844 126.710938 135.054688 C 126.714844 134.996094 126.722656 134.941406 126.730469 134.882812 Z M 142.988281 122.53125 C 142.976562 122.628906 142.949219 122.730469 142.925781 122.828125 C 142.832031 122.863281 142.742188 122.898438 142.648438 122.933594 C 142.648438 122.9375 142.644531 122.9375 142.640625 122.9375 C 142.769531 122.808594 142.882812 122.671875 142.988281 122.53125 Z M 143.695312 121.433594 C 143.691406 121.460938 143.6875 121.488281 143.683594 121.515625 C 143.679688 121.578125 143.671875 121.640625 143.671875 121.703125 C 143.667969 121.707031 143.660156 121.707031 143.65625 121.710938 C 143.597656 121.730469 143.535156 121.746094 143.472656 121.765625 C 143.535156 121.667969 143.59375 121.574219 143.660156 121.480469 C 143.671875 121.464844 143.683594 121.449219 143.695312 121.433594 Z M 144.082031 121.003906 C 144.070312 121.082031 144.0625 121.15625 144.054688 121.234375 C 144.050781 121.253906 144.050781 121.273438 144.046875 121.292969 C 143.960938 121.308594 143.878906 121.324219 143.792969 121.339844 C 143.792969 121.335938 143.792969 121.328125 143.792969 121.324219 C 143.792969 121.316406 143.792969 121.308594 143.796875 121.300781 C 143.816406 121.277344 143.835938 121.25 143.855469 121.222656 C 143.863281 121.21875 143.871094 121.210938 143.882812 121.199219 C 143.917969 121.160156 143.957031 121.117188 143.996094 121.082031 C 144.023438 121.054688 144.054688 121.027344 144.082031 121.003906 Z M 150.46875 111.613281 C 151.371094 110.183594 152.238281 108.730469 153.0625 107.257812 C 153.839844 105.867188 154.539062 104.441406 155.292969 103.039062 C 156.011719 101.695312 156.808594 100.375 157.757812 99.179688 C 158.203125 98.617188 158.691406 98.078125 159.238281 97.613281 C 159.78125 97.152344 160.402344 96.777344 161.027344 96.4375 C 161.601562 96.125 162.203125 95.84375 162.824219 95.636719 C 162.398438 95.941406 161.988281 96.269531 161.605469 96.617188 C 160.414062 97.707031 159.367188 98.933594 158.449219 100.257812 C 157.519531 101.589844 156.699219 102.992188 155.851562 104.375 C 154.921875 105.894531 153.957031 107.394531 152.964844 108.875 C 150.945312 111.875 148.792969 114.78125 146.558594 117.625 C 146.027344 118.300781 145.492188 118.972656 144.964844 119.65625 C 144.90625 119.632812 144.835938 119.621094 144.765625 119.617188 C 146.859375 117.105469 148.722656 114.375 150.46875 111.613281 Z M 166.964844 93.933594 C 167.792969 93.773438 168.648438 93.796875 169.480469 93.917969 C 169.875 93.976562 170.265625 94.058594 170.652344 94.160156 C 170.835938 94.207031 171.019531 94.253906 171.1875 94.339844 C 171.476562 94.496094 171.738281 94.703125 171.992188 94.898438 C 172.386719 95.207031 172.765625 95.53125 173.136719 95.867188 C 173.300781 96.015625 173.464844 96.164062 173.625 96.316406 C 173.40625 96.371094 173.191406 96.476562 172.992188 96.585938 C 172.605469 96.25 172.1875 95.953125 171.734375 95.726562 C 171.273438 95.492188 170.828125 95.4375 170.320312 95.394531 C 169.558594 95.335938 168.789062 95.289062 168.03125 95.382812 C 167.71875 95.421875 167.417969 95.488281 167.125 95.582031 C 166.304688 95.304688 165.398438 95.066406 164.503906 95.027344 C 164.769531 94.871094 165.035156 94.726562 165.304688 94.585938 C 165.828125 94.320312 166.382812 94.042969 166.964844 93.933594 Z M 175.4375 98.253906 C 175.707031 98.59375 175.976562 98.953125 176.164062 99.347656 C 176.371094 99.78125 176.433594 100.265625 176.445312 100.738281 C 176.480469 102.082031 176.074219 103.449219 175.578125 104.6875 C 175.332031 105.300781 175.054688 105.914062 174.734375 106.503906 C 174.855469 105.667969 174.886719 104.820312 174.789062 103.988281 C 174.757812 103.71875 174.714844 103.445312 174.648438 103.175781 C 174.988281 102.296875 175.25 101.363281 175.265625 100.429688 C 175.277344 99.503906 174.828125 98.703125 174.277344 97.980469 C 174.425781 97.777344 174.5625 97.558594 174.632812 97.324219 C 174.914062 97.625 175.183594 97.933594 175.4375 98.253906 Z M 172.929688 110.210938 C 172.34375 111.34375 171.46875 112.199219 170.425781 112.925781 C 169.273438 113.730469 168.023438 114.386719 166.789062 115.054688 C 166.324219 115.304688 166.050781 115.464844 165.589844 115.679688 C 165.152344 115.886719 164.707031 116.082031 164.257812 116.269531 C 163.21875 116.710938 162.171875 117.132812 161.125 117.550781 C 160.421875 117.828125 159.707031 118.078125 159.019531 118.386719 C 156.125 119.6875 153.039062 120.515625 150.152344 121.828125 C 150.972656 121.367188 151.808594 120.9375 152.660156 120.539062 C 154.195312 119.820312 155.757812 119.171875 157.296875 118.457031 C 158.089844 118.089844 158.871094 117.707031 159.640625 117.296875 C 159.695312 117.265625 159.75 117.238281 159.804688 117.207031 C 159.808594 117.207031 159.816406 117.203125 159.820312 117.199219 C 159.875 117.171875 159.933594 117.144531 159.988281 117.117188 C 160.136719 117.042969 160.289062 116.96875 160.441406 116.898438 C 161.378906 116.449219 162.328125 116.023438 163.269531 115.585938 C 164.304688 115.105469 165.339844 114.625 166.355469 114.105469 C 167.382812 113.578125 168.414062 112.933594 169.417969 112.324219 C 170.703125 111.542969 171.988281 110.714844 173.09375 109.6875 C 173.144531 109.640625 173.195312 109.59375 173.246094 109.546875 C 173.144531 109.769531 173.042969 109.992188 172.929688 110.210938 Z M 139.195312 130.53125 C 139.203125 130.449219 139.214844 130.367188 139.222656 130.285156 C 139.3125 130.308594 139.40625 130.332031 139.496094 130.351562 C 139.449219 130.421875 139.398438 130.492188 139.351562 130.5625 C 139.300781 130.550781 139.246094 130.542969 139.195312 130.53125 Z M 137.644531 132.863281 C 137.511719 132.84375 137.378906 132.816406 137.246094 132.785156 C 137.292969 132.648438 137.339844 132.511719 137.386719 132.375 C 137.59375 132.394531 137.8125 132.398438 138.035156 132.378906 C 137.929688 132.515625 137.824219 132.648438 137.714844 132.78125 C 137.691406 132.808594 137.667969 132.835938 137.644531 132.863281 Z M 137.28125 133.300781 C 137.207031 133.296875 137.136719 133.289062 137.0625 133.285156 C 137.097656 133.1875 137.136719 133.09375 137.171875 132.996094 C 137.273438 133.019531 137.378906 133.042969 137.480469 133.058594 C 137.425781 133.128906 137.371094 133.195312 137.3125 133.261719 C 137.300781 133.273438 137.292969 133.285156 137.28125 133.300781 Z M 136.96875 133.664062 C 136.933594 133.707031 136.894531 133.746094 136.859375 133.789062 C 136.902344 133.691406 136.941406 133.589844 136.980469 133.492188 C 137.023438 133.496094 137.066406 133.5 137.109375 133.503906 C 137.105469 133.507812 137.097656 133.511719 137.09375 133.519531 C 137.101562 133.511719 137.105469 133.507812 137.109375 133.503906 C 137.09375 133.519531 137.082031 133.535156 137.074219 133.539062 C 137.039062 133.582031 137.003906 133.621094 136.96875 133.664062 Z M 136.085938 134.386719 C 136.125 134.269531 136.160156 134.152344 136.199219 134.039062 C 136.320312 134.066406 136.449219 134.089844 136.574219 134.105469 C 136.480469 134.214844 136.382812 134.320312 136.285156 134.425781 C 136.21875 134.410156 136.152344 134.398438 136.085938 134.386719 Z M 135.355469 134.902344 C 135.394531 134.78125 135.429688 134.660156 135.460938 134.542969 C 135.46875 134.515625 135.476562 134.488281 135.484375 134.464844 C 135.59375 134.496094 135.707031 134.523438 135.820312 134.550781 C 135.800781 134.613281 135.78125 134.675781 135.757812 134.738281 C 135.714844 134.875 135.929688 134.859375 135.976562 134.726562 C 135.992188 134.683594 136.003906 134.640625 136.019531 134.597656 C 136.046875 134.601562 136.078125 134.609375 136.105469 134.613281 C 135.992188 134.734375 135.878906 134.855469 135.761719 134.972656 C 135.625 134.953125 135.488281 134.929688 135.355469 134.902344 Z M 135.179688 135.539062 C 135.160156 135.535156 135.140625 135.53125 135.121094 135.527344 C 135.15625 135.457031 135.191406 135.386719 135.21875 135.316406 C 135.242188 135.246094 135.265625 135.179688 135.289062 135.113281 C 135.382812 135.132812 135.472656 135.148438 135.570312 135.164062 C 135.484375 135.246094 135.398438 135.332031 135.3125 135.414062 C 135.269531 135.457031 135.226562 135.496094 135.179688 135.539062 Z M 134.699219 135.972656 C 134.566406 135.941406 134.433594 135.90625 134.304688 135.863281 C 134.355469 135.765625 134.40625 135.667969 134.453125 135.566406 C 134.566406 135.609375 134.675781 135.640625 134.792969 135.671875 C 134.75 135.71875 134.703125 135.761719 134.652344 135.800781 C 134.539062 135.875 134.613281 135.984375 134.714844 135.960938 C 134.710938 135.964844 134.707031 135.96875 134.699219 135.972656 Z M 134.03125 136.324219 C 134.085938 136.238281 134.136719 136.15625 134.1875 136.070312 C 134.289062 136.101562 134.390625 136.128906 134.492188 136.15625 C 134.484375 136.167969 134.472656 136.175781 134.460938 136.183594 C 134.386719 136.25 134.308594 136.3125 134.230469 136.375 C 134.164062 136.359375 134.097656 136.34375 134.03125 136.324219 Z M 133.589844 136.882812 C 133.453125 136.847656 133.320312 136.8125 133.191406 136.769531 C 133.269531 136.636719 133.347656 136.5 133.417969 136.363281 C 133.613281 136.4375 133.8125 136.5 134.015625 136.554688 C 134.007812 136.558594 134 136.566406 133.992188 136.570312 C 133.957031 136.597656 133.925781 136.625 133.890625 136.652344 C 133.792969 136.730469 133.695312 136.804688 133.597656 136.878906 C 133.59375 136.878906 133.589844 136.882812 133.589844 136.882812 Z M 132.777344 137.402344 C 132.878906 137.261719 132.976562 137.117188 133.066406 136.972656 C 133.164062 137 133.257812 137.027344 133.355469 137.054688 C 133.1875 137.175781 133.015625 137.296875 132.84375 137.417969 C 132.820312 137.414062 132.800781 137.40625 132.777344 137.402344 Z M 132.039062 137.945312 C 131.910156 137.929688 131.785156 137.90625 131.667969 137.875 C 131.75 137.703125 131.832031 137.535156 131.914062 137.367188 C 132.085938 137.433594 132.261719 137.492188 132.441406 137.542969 C 132.398438 137.597656 132.355469 137.65625 132.3125 137.710938 C 132.285156 137.742188 132.277344 137.773438 132.285156 137.796875 C 132.21875 137.839844 132.152344 137.882812 132.085938 137.921875 C 132.070312 137.929688 132.054688 137.9375 132.039062 137.945312 Z M 131.570312 138.078125 C 131.617188 138.089844 131.667969 138.101562 131.71875 138.113281 C 131.648438 138.148438 131.578125 138.175781 131.503906 138.207031 C 131.527344 138.164062 131.546875 138.121094 131.570312 138.078125 Z M 129.082031 138.402344 C 129.050781 138.394531 129.019531 138.382812 128.984375 138.378906 C 128.996094 138.378906 129 138.382812 129.007812 138.382812 C 128.941406 138.363281 128.875 138.34375 128.8125 138.320312 C 128.738281 138.296875 128.664062 138.265625 128.589844 138.234375 C 128.65625 138.183594 128.71875 138.132812 128.777344 138.074219 C 128.878906 138.199219 128.992188 138.308594 129.117188 138.410156 C 129.105469 138.40625 129.09375 138.40625 129.082031 138.402344 Z M 128.226562 138.066406 C 128.191406 137.996094 128.15625 137.921875 128.125 137.847656 C 128.222656 137.726562 128.320312 137.605469 128.414062 137.484375 C 128.484375 137.640625 128.566406 137.789062 128.667969 137.929688 C 128.585938 138.003906 128.503906 138.074219 128.417969 138.140625 C 128.410156 138.144531 128.410156 138.148438 128.40625 138.15625 C 128.34375 138.125 128.285156 138.097656 128.226562 138.066406 Z M 129.359375 138.289062 C 129.207031 138.175781 129.074219 138.046875 128.957031 137.90625 C 129.078125 137.78125 129.195312 137.648438 129.296875 137.507812 C 129.40625 137.667969 129.527344 137.816406 129.664062 137.949219 C 129.566406 138.066406 129.464844 138.175781 129.359375 138.289062 Z M 130.679688 137.628906 C 130.550781 137.796875 130.40625 137.957031 130.25 138.109375 C 130.144531 138.042969 130.046875 137.972656 129.953125 137.890625 C 130.105469 137.710938 130.246094 137.523438 130.382812 137.335938 C 130.472656 137.441406 130.570312 137.539062 130.679688 137.628906 Z M 131.082031 136.984375 C 131.003906 137.136719 130.917969 137.289062 130.820312 137.433594 C 130.710938 137.339844 130.613281 137.238281 130.527344 137.128906 C 130.601562 137.015625 130.671875 136.902344 130.742188 136.789062 C 130.851562 136.859375 130.964844 136.921875 131.082031 136.984375 Z M 131.835938 137.085938 C 131.671875 137.019531 131.511719 136.945312 131.355469 136.863281 C 131.4375 136.671875 131.503906 136.480469 131.554688 136.285156 C 131.554688 136.285156 131.558594 136.289062 131.5625 136.292969 C 131.730469 136.394531 131.902344 136.492188 132.082031 136.578125 C 132 136.75 131.917969 136.917969 131.835938 137.085938 Z M 132.015625 137.160156 C 132.097656 136.992188 132.179688 136.828125 132.257812 136.664062 C 132.460938 136.753906 132.667969 136.835938 132.882812 136.910156 C 132.789062 137.058594 132.6875 137.203125 132.585938 137.347656 C 132.390625 137.292969 132.203125 137.230469 132.015625 137.160156 Z M 130.96875 137.546875 C 131.074219 137.394531 131.167969 137.238281 131.25 137.078125 C 131.40625 137.15625 131.566406 137.230469 131.734375 137.296875 C 131.648438 137.46875 131.566406 137.640625 131.480469 137.8125 C 131.296875 137.746094 131.125 137.65625 130.96875 137.546875 Z M 131.242188 138.304688 C 131.203125 138.316406 131.164062 138.332031 131.128906 138.34375 C 131.125 138.34375 131.121094 138.34375 131.121094 138.34375 C 131.125 138.34375 131.132812 138.34375 131.140625 138.339844 C 131.09375 138.351562 131.042969 138.367188 130.992188 138.378906 C 130.949219 138.390625 130.90625 138.398438 130.867188 138.410156 C 130.703125 138.355469 130.554688 138.285156 130.410156 138.207031 C 130.5625 138.058594 130.699219 137.902344 130.828125 137.738281 C 130.996094 137.851562 131.179688 137.949219 131.378906 138.019531 C 131.332031 138.113281 131.285156 138.210938 131.242188 138.304688 Z M 129.511719 138.394531 C 129.609375 138.289062 129.707031 138.183594 129.800781 138.074219 C 129.882812 138.144531 129.972656 138.210938 130.066406 138.273438 C 130.0625 138.277344 130.054688 138.285156 130.050781 138.289062 C 129.929688 138.390625 130.046875 138.53125 130.167969 138.429688 C 130.1875 138.410156 130.207031 138.394531 130.226562 138.375 C 130.296875 138.414062 130.367188 138.449219 130.4375 138.480469 C 130.347656 138.492188 130.253906 138.503906 130.164062 138.507812 C 130.167969 138.507812 130.167969 138.507812 130.171875 138.507812 C 130.167969 138.507812 130.160156 138.507812 130.152344 138.507812 C 130.152344 138.507812 130.15625 138.507812 130.15625 138.507812 C 130.160156 138.507812 130.164062 138.507812 130.164062 138.507812 C 130.046875 138.496094 130.085938 138.507812 130.132812 138.507812 C 130.109375 138.507812 130.085938 138.511719 130.066406 138.511719 C 130 138.511719 129.9375 138.511719 129.875 138.507812 C 129.8125 138.503906 129.75 138.5 129.6875 138.496094 C 129.625 138.464844 129.566406 138.429688 129.511719 138.394531 Z M 133.238281 136.292969 C 133.164062 136.433594 133.085938 136.574219 133.003906 136.710938 C 132.785156 136.636719 132.570312 136.550781 132.359375 136.453125 C 132.4375 136.300781 132.511719 136.144531 132.585938 135.992188 C 132.796875 136.101562 133.011719 136.203125 133.238281 136.292969 Z M 133.34375 136.085938 C 133.117188 135.996094 132.902344 135.890625 132.691406 135.777344 C 132.753906 135.644531 132.820312 135.511719 132.882812 135.378906 C 133.070312 135.527344 133.273438 135.65625 133.488281 135.773438 C 133.441406 135.875 133.394531 135.980469 133.34375 136.085938 Z M 133.523438 136.15625 C 133.574219 136.058594 133.621094 135.960938 133.664062 135.859375 C 133.773438 135.914062 133.890625 135.960938 134.007812 136.003906 C 133.957031 136.09375 133.902344 136.179688 133.847656 136.269531 C 133.738281 136.234375 133.628906 136.195312 133.523438 136.15625 Z M 134.273438 135.496094 C 134.226562 135.597656 134.175781 135.699219 134.121094 135.800781 C 133.996094 135.753906 133.875 135.703125 133.753906 135.644531 C 133.800781 135.53125 133.84375 135.421875 133.886719 135.308594 C 134.011719 135.378906 134.140625 135.4375 134.273438 135.496094 Z M 134.371094 135.285156 C 134.226562 135.222656 134.09375 135.15625 133.960938 135.082031 C 134.011719 134.925781 134.054688 134.769531 134.09375 134.613281 C 134.234375 134.707031 134.382812 134.789062 134.539062 134.863281 C 134.488281 135.003906 134.429688 135.144531 134.371094 135.285156 Z M 134.550781 135.359375 C 134.613281 135.21875 134.667969 135.082031 134.722656 134.941406 C 134.839844 134.988281 134.964844 135.027344 135.089844 135.0625 C 135.082031 135.089844 135.074219 135.117188 135.066406 135.148438 C 135.027344 135.257812 134.988281 135.371094 134.929688 135.476562 C 134.800781 135.441406 134.671875 135.402344 134.550781 135.359375 Z M 135.289062 134.40625 C 135.285156 134.414062 135.285156 134.421875 135.28125 134.429688 C 135.242188 134.570312 135.203125 134.707031 135.160156 134.847656 C 135.035156 134.8125 134.914062 134.773438 134.796875 134.722656 C 134.84375 134.578125 134.890625 134.429688 134.925781 134.28125 C 135.046875 134.324219 135.164062 134.367188 135.289062 134.40625 Z M 136.003906 133.988281 C 135.964844 134.105469 135.925781 134.222656 135.890625 134.339844 C 135.773438 134.308594 135.65625 134.277344 135.542969 134.246094 C 135.578125 134.117188 135.609375 133.992188 135.636719 133.867188 C 135.757812 133.910156 135.878906 133.953125 136.003906 133.988281 Z M 136.195312 133.351562 C 136.152344 133.492188 136.113281 133.632812 136.070312 133.769531 C 135.9375 133.730469 135.8125 133.6875 135.691406 133.636719 C 135.722656 133.496094 135.75 133.355469 135.777344 133.210938 C 135.910156 133.265625 136.050781 133.3125 136.195312 133.351562 Z M 136.613281 133.890625 C 136.496094 133.871094 136.378906 133.847656 136.265625 133.820312 C 136.308594 133.683594 136.351562 133.542969 136.394531 133.402344 C 136.519531 133.429688 136.644531 133.453125 136.777344 133.472656 C 136.726562 133.59375 136.675781 133.71875 136.625 133.839844 C 136.617188 133.859375 136.613281 133.875 136.613281 133.890625 Z M 136.976562 132.953125 C 136.9375 133.054688 136.898438 133.160156 136.859375 133.261719 C 136.722656 133.246094 136.585938 133.21875 136.457031 133.191406 C 136.492188 133.070312 136.527344 132.953125 136.558594 132.835938 C 136.695312 132.878906 136.835938 132.917969 136.976562 132.953125 Z M 137.179688 132.347656 C 137.140625 132.476562 137.097656 132.609375 137.050781 132.738281 C 136.90625 132.703125 136.761719 132.660156 136.625 132.613281 C 136.660156 132.488281 136.695312 132.363281 136.730469 132.238281 C 136.875 132.285156 137.027344 132.320312 137.179688 132.347656 Z M 137.386719 131.664062 C 137.34375 131.820312 137.296875 131.976562 137.25 132.136719 C 137.089844 132.109375 136.933594 132.066406 136.789062 132.015625 C 136.828125 131.867188 136.867188 131.722656 136.90625 131.574219 C 136.914062 131.550781 136.90625 131.53125 136.898438 131.515625 C 137.058594 131.566406 137.222656 131.617188 137.386719 131.664062 Z M 138.308594 131.382812 C 138.289062 131.46875 138.269531 131.554688 138.246094 131.640625 C 138.042969 131.597656 137.839844 131.550781 137.640625 131.5 C 137.664062 131.398438 137.691406 131.296875 137.714844 131.195312 C 137.902344 131.277344 138.101562 131.339844 138.308594 131.382812 Z M 138.46875 130.613281 C 138.441406 130.78125 138.40625 130.953125 138.371094 131.121094 C 138.367188 131.136719 138.363281 131.148438 138.359375 131.164062 C 138.152344 131.117188 137.953125 131.050781 137.769531 130.964844 C 137.804688 130.804688 137.835938 130.648438 137.863281 130.492188 C 138.066406 130.53125 138.269531 130.570312 138.46875 130.613281 Z M 138.875 131.242188 C 138.769531 131.234375 138.664062 131.222656 138.5625 131.207031 C 138.578125 131.144531 138.59375 131.085938 138.605469 131.027344 C 138.628906 130.90625 138.65625 130.78125 138.683594 130.65625 C 138.773438 130.671875 138.867188 130.691406 138.957031 130.710938 C 138.9375 130.886719 138.910156 131.0625 138.875 131.242188 Z M 138.382812 131.921875 C 138.386719 131.914062 138.386719 131.902344 138.390625 131.890625 C 138.394531 131.894531 138.398438 131.894531 138.402344 131.894531 C 138.398438 131.902344 138.390625 131.914062 138.382812 131.921875 Z M 138.730469 131.445312 C 138.667969 131.53125 138.609375 131.613281 138.550781 131.695312 C 138.515625 131.691406 138.480469 131.683594 138.449219 131.679688 C 138.472656 131.59375 138.496094 131.507812 138.515625 131.421875 C 138.585938 131.429688 138.65625 131.441406 138.730469 131.445312 Z M 137.453125 132.164062 C 137.496094 132.015625 137.542969 131.867188 137.582031 131.714844 C 137.78125 131.769531 137.984375 131.8125 138.191406 131.855469 C 138.160156 131.960938 138.128906 132.066406 138.097656 132.171875 C 137.875 132.1875 137.660156 132.1875 137.453125 132.164062 Z M 139.214844 130.761719 C 139.195312 130.789062 139.175781 130.816406 139.15625 130.84375 C 139.160156 130.8125 139.164062 130.78125 139.167969 130.753906 C 139.183594 130.753906 139.199219 130.757812 139.214844 130.761719 Z M 139.007812 130.226562 C 139 130.316406 138.992188 130.402344 138.984375 130.488281 C 138.898438 130.472656 138.808594 130.453125 138.722656 130.4375 C 138.738281 130.34375 138.75 130.25 138.757812 130.15625 C 138.839844 130.179688 138.921875 130.207031 139.007812 130.226562 Z M 139.578125 129.832031 C 139.5625 129.929688 139.546875 130.03125 139.53125 130.128906 C 139.433594 130.105469 139.335938 130.082031 139.238281 130.058594 C 139.246094 129.957031 139.25 129.859375 139.253906 129.757812 C 139.359375 129.789062 139.46875 129.8125 139.578125 129.832031 Z M 139.707031 129.074219 C 139.675781 129.253906 139.644531 129.433594 139.617188 129.613281 C 139.492188 129.589844 139.375 129.558594 139.257812 129.523438 C 139.261719 129.339844 139.257812 129.164062 139.25 128.984375 C 139.398438 129.019531 139.550781 129.050781 139.707031 129.074219 Z M 140.515625 128.507812 C 140.5 128.65625 140.480469 128.804688 140.460938 128.949219 C 140.289062 128.9375 140.117188 128.917969 139.949219 128.890625 C 139.980469 128.722656 140.007812 128.554688 140.035156 128.386719 C 140.191406 128.433594 140.351562 128.476562 140.515625 128.507812 Z M 140.5625 128.011719 C 140.554688 128.101562 140.546875 128.195312 140.539062 128.289062 C 140.378906 128.253906 140.222656 128.210938 140.074219 128.164062 C 140.089844 128.070312 140.101562 127.980469 140.117188 127.890625 C 140.261719 127.941406 140.410156 127.980469 140.5625 128.011719 Z M 141.160156 127.140625 C 141.140625 127.378906 141.101562 127.617188 141.050781 127.855469 C 140.964844 127.851562 140.878906 127.839844 140.792969 127.828125 C 140.8125 127.570312 140.824219 127.316406 140.832031 127.0625 C 140.941406 127.089844 141.050781 127.113281 141.160156 127.140625 Z M 141.679688 126.710938 C 141.671875 126.816406 141.660156 126.921875 141.652344 127.027344 C 141.5625 127.007812 141.476562 126.988281 141.390625 126.964844 C 141.398438 126.851562 141.402344 126.742188 141.402344 126.628906 C 141.492188 126.660156 141.585938 126.6875 141.679688 126.710938 Z M 142.359375 126.152344 C 142.347656 126.292969 142.328125 126.4375 142.308594 126.582031 C 142.175781 126.574219 142.039062 126.558594 141.914062 126.535156 C 141.929688 126.363281 141.945312 126.195312 141.960938 126.023438 C 142.089844 126.074219 142.222656 126.117188 142.359375 126.152344 Z M 143.046875 125.691406 C 143.050781 125.800781 143.054688 125.914062 143.050781 126.03125 C 142.894531 126.023438 142.742188 126.003906 142.59375 125.972656 C 142.601562 125.835938 142.613281 125.695312 142.617188 125.554688 C 142.757812 125.601562 142.902344 125.648438 143.046875 125.691406 Z M 143.339844 125.539062 C 143.3125 125.53125 143.285156 125.523438 143.257812 125.515625 C 143.253906 125.445312 143.242188 125.371094 143.234375 125.300781 C 143.269531 125.378906 143.304688 125.460938 143.339844 125.539062 Z M 144.199219 120.921875 C 144.292969 121.003906 144.382812 121.097656 144.457031 121.203125 C 144.457031 121.210938 144.457031 121.21875 144.460938 121.226562 C 144.390625 121.234375 144.320312 121.246094 144.25 121.257812 C 144.222656 121.261719 144.195312 121.269531 144.171875 121.273438 C 144.171875 121.261719 144.171875 121.253906 144.171875 121.246094 C 144.183594 121.136719 144.191406 121.03125 144.199219 120.921875 Z M 144.804688 120.679688 C 144.832031 120.683594 144.859375 120.6875 144.886719 120.691406 C 144.890625 120.742188 144.898438 120.792969 144.898438 120.84375 C 144.902344 120.851562 144.898438 120.863281 144.902344 120.871094 C 144.847656 120.859375 144.792969 120.851562 144.734375 120.84375 C 144.734375 120.832031 144.730469 120.824219 144.730469 120.8125 C 144.722656 120.785156 144.71875 120.757812 144.710938 120.730469 C 144.753906 120.707031 144.753906 120.707031 144.710938 120.730469 C 144.742188 120.710938 144.773438 120.695312 144.804688 120.679688 Z M 174.355469 102.324219 C 174.179688 101.957031 173.949219 101.617188 173.703125 101.289062 C 173.703125 101.285156 173.699219 101.285156 173.699219 101.28125 C 173.839844 101.023438 173.972656 100.761719 174.097656 100.492188 C 174.269531 100.117188 174.429688 99.722656 174.503906 99.3125 C 174.511719 99.273438 174.515625 99.230469 174.519531 99.191406 C 174.566406 99.296875 174.613281 99.398438 174.652344 99.503906 C 174.992188 100.414062 174.699219 101.492188 174.398438 102.375 C 174.394531 102.378906 174.390625 102.386719 174.386719 102.394531 C 174.378906 102.371094 174.367188 102.347656 174.355469 102.324219 Z M 172.742188 105.730469 C 172.089844 106.746094 171.335938 107.652344 170.414062 108.4375 C 169.359375 109.335938 168.207031 110.105469 167.054688 110.875 C 166.183594 111.457031 165.320312 112.050781 164.417969 112.585938 C 163.566406 113.09375 162.703125 113.585938 161.835938 114.074219 C 160.265625 114.960938 158.695312 115.851562 157.125 116.738281 C 154.628906 118.144531 152.023438 119.351562 149.566406 120.820312 C 151.171875 119.675781 152.820312 118.597656 154.472656 117.515625 C 156.121094 116.433594 157.730469 115.296875 159.378906 114.21875 C 160.925781 113.203125 162.492188 112.207031 163.988281 111.121094 C 166.101562 109.589844 168.25 108.027344 170.078125 106.167969 C 170.902344 105.332031 171.632812 104.398438 172.3125 103.445312 C 172.710938 102.882812 173.101562 102.304688 173.457031 101.707031 C 173.648438 101.984375 173.820312 102.269531 173.949219 102.570312 C 174.019531 102.738281 174.078125 102.90625 174.128906 103.082031 C 173.75 104.003906 173.277344 104.890625 172.742188 105.730469 Z M 142.898438 126.234375 C 142.773438 126.34375 142.648438 126.457031 142.527344 126.570312 C 142.542969 126.445312 142.558594 126.320312 142.570312 126.195312 C 142.679688 126.210938 142.789062 126.226562 142.898438 126.234375 Z M 143.375 125.78125 C 143.386719 125.800781 143.40625 125.8125 143.429688 125.816406 C 143.378906 125.847656 143.324219 125.882812 143.273438 125.921875 C 143.273438 125.867188 143.273438 125.808594 143.273438 125.753906 C 143.308594 125.761719 143.34375 125.773438 143.375 125.78125 Z M 142.101562 123.429688 C 142.074219 123.4375 142.050781 123.445312 142.023438 123.453125 C 142.019531 123.449219 142.011719 123.445312 142.007812 123.441406 C 142.027344 123.429688 142.046875 123.417969 142.066406 123.40625 C 142.078125 123.414062 142.089844 123.421875 142.101562 123.429688 Z M 142.335938 123.371094 C 142.277344 123.386719 142.21875 123.398438 142.160156 123.414062 C 142.144531 123.402344 142.128906 123.390625 142.109375 123.378906 C 142.160156 123.34375 142.207031 123.308594 142.253906 123.273438 C 142.3125 123.296875 142.367188 123.324219 142.417969 123.351562 C 142.390625 123.359375 142.363281 123.363281 142.335938 123.371094 Z M 143.207031 124.246094 C 143.246094 124.316406 143.285156 124.386719 143.320312 124.460938 C 143.347656 124.523438 143.375 124.589844 143.398438 124.65625 C 143.441406 124.769531 143.476562 124.886719 143.507812 125.007812 C 143.503906 125.0625 143.496094 125.117188 143.488281 125.171875 C 143.425781 125.042969 143.347656 124.914062 143.277344 124.796875 C 143.257812 124.769531 143.242188 124.746094 143.222656 124.71875 C 143.203125 124.671875 143.179688 124.621094 143.15625 124.574219 C 142.9375 124.140625 142.625 123.769531 142.238281 123.472656 C 142.273438 123.464844 142.308594 123.453125 142.347656 123.445312 C 142.394531 123.429688 142.445312 123.414062 142.496094 123.398438 C 142.808594 123.605469 143.03125 123.921875 143.207031 124.246094 Z M 143.941406 124.777344 C 143.9375 124.8125 143.9375 124.84375 143.933594 124.878906 C 143.925781 124.871094 143.917969 124.859375 143.910156 124.851562 C 143.878906 124.8125 143.804688 124.820312 143.757812 124.859375 C 143.746094 124.867188 143.742188 124.875 143.734375 124.882812 C 143.738281 124.824219 143.742188 124.765625 143.742188 124.710938 C 143.808594 124.730469 143.875 124.753906 143.941406 124.777344 Z M 144.457031 124.410156 C 144.453125 124.503906 144.449219 124.59375 144.441406 124.6875 C 144.351562 124.664062 144.261719 124.636719 144.171875 124.609375 C 144.175781 124.519531 144.175781 124.425781 144.171875 124.335938 C 144.265625 124.363281 144.363281 124.386719 144.457031 124.410156 Z M 144.976562 124.175781 C 144.96875 124.214844 144.964844 124.257812 144.957031 124.300781 C 144.863281 124.28125 144.773438 124.261719 144.679688 124.238281 C 144.679688 124.179688 144.679688 124.121094 144.679688 124.0625 C 144.777344 124.101562 144.875 124.140625 144.976562 124.175781 Z M 145.859375 123.820312 C 145.851562 123.925781 145.835938 124.035156 145.820312 124.144531 C 145.609375 124.113281 145.410156 124.070312 145.214844 124.011719 C 145.230469 123.898438 145.246094 123.789062 145.257812 123.675781 C 145.457031 123.730469 145.65625 123.777344 145.859375 123.820312 Z M 145.871094 123.59375 C 145.675781 123.550781 145.480469 123.503906 145.289062 123.453125 C 145.292969 123.390625 145.300781 123.328125 145.308594 123.265625 C 145.492188 123.324219 145.679688 123.378906 145.871094 123.425781 C 145.871094 123.484375 145.871094 123.539062 145.871094 123.59375 Z M 146.285156 123.527344 C 146.289062 123.578125 146.292969 123.628906 146.292969 123.679688 C 146.226562 123.667969 146.15625 123.652344 146.085938 123.640625 C 146.089844 123.585938 146.089844 123.535156 146.089844 123.484375 C 146.15625 123.5 146.21875 123.515625 146.285156 123.527344 Z M 146.847656 122.433594 C 146.859375 122.433594 146.867188 122.4375 146.878906 122.4375 C 146.898438 122.472656 146.917969 122.507812 146.9375 122.546875 C 146.898438 122.507812 146.863281 122.46875 146.824219 122.429688 C 146.832031 122.429688 146.839844 122.433594 146.847656 122.433594 Z M 145.46875 120.847656 C 145.457031 120.828125 145.441406 120.808594 145.429688 120.789062 C 145.6875 121.078125 145.941406 121.367188 146.195312 121.660156 C 146.382812 121.878906 146.574219 122.089844 146.761719 122.304688 C 146.738281 122.300781 146.714844 122.292969 146.691406 122.289062 C 146.507812 122.097656 146.324219 121.902344 146.152344 121.699219 C 145.914062 121.425781 145.683594 121.140625 145.46875 120.847656 Z M 172.613281 99.988281 C 172.816406 99.761719 173.015625 99.535156 173.210938 99.304688 C 173.464844 99.015625 173.710938 98.71875 173.949219 98.417969 C 173.949219 98.421875 173.953125 98.425781 173.953125 98.429688 C 174.105469 98.796875 174.097656 99.132812 173.988281 99.507812 C 173.847656 99.980469 173.632812 100.441406 173.386719 100.882812 C 173.140625 100.578125 172.878906 100.277344 172.613281 99.988281 Z M 146.964844 121.964844 C 146.957031 121.957031 146.949219 121.945312 146.941406 121.9375 C 149.085938 120.09375 151.292969 118.324219 153.507812 116.558594 C 155.0625 115.320312 156.597656 114.058594 158.160156 112.832031 C 159.636719 111.667969 161.117188 110.511719 162.574219 109.324219 C 164.503906 107.75 166.402344 106.136719 168.234375 104.449219 C 169.65625 103.140625 171.015625 101.757812 172.3125 100.320312 C 172.355469 100.371094 172.402344 100.421875 172.445312 100.472656 C 172.675781 100.734375 172.917969 101.007812 173.144531 101.292969 C 172.957031 101.601562 172.757812 101.898438 172.558594 102.1875 C 171.902344 103.148438 171.183594 104.066406 170.40625 104.933594 C 168.667969 106.867188 166.464844 108.351562 164.390625 109.90625 C 162.929688 111 161.425781 112.035156 159.921875 113.074219 C 158.488281 114.058594 157.066406 115.0625 155.625 116.035156 C 153.339844 117.574219 151 119.027344 148.757812 120.632812 C 148.152344 121.066406 147.554688 121.507812 146.964844 121.964844 Z M 146.515625 123.695312 C 146.515625 123.65625 146.519531 123.617188 146.519531 123.578125 C 146.574219 123.585938 146.632812 123.597656 146.6875 123.609375 C 146.679688 123.652344 146.671875 123.699219 146.667969 123.742188 C 146.617188 123.734375 146.566406 123.726562 146.515625 123.71875 C 146.515625 123.710938 146.515625 123.703125 146.515625 123.695312 Z M 146.523438 122.867188 C 146.582031 122.878906 146.640625 122.894531 146.699219 122.90625 C 146.703125 122.910156 146.707031 122.914062 146.714844 122.921875 C 146.71875 123.027344 146.722656 123.132812 146.71875 123.242188 C 146.714844 123.320312 146.710938 123.402344 146.703125 123.480469 C 146.640625 123.46875 146.582031 123.460938 146.519531 123.449219 C 146.515625 123.324219 146.503906 123.199219 146.480469 123.082031 C 146.46875 123.003906 146.453125 122.921875 146.429688 122.839844 C 146.460938 122.851562 146.492188 122.859375 146.523438 122.867188 Z M 146.457031 121.417969 C 146.40625 121.367188 146.355469 121.316406 146.308594 121.265625 C 146.296875 121.253906 146.289062 121.242188 146.28125 121.230469 C 146.285156 121.226562 146.289062 121.226562 146.292969 121.222656 C 148.636719 119.222656 150.851562 117.0625 153.085938 114.941406 C 155.285156 112.851562 157.472656 110.75 159.632812 108.625 C 161.566406 106.722656 163.453125 104.765625 165.449219 102.929688 C 166.398438 102.054688 167.367188 101.210938 168.355469 100.382812 C 169.09375 99.761719 169.832031 99.132812 170.609375 98.554688 C 171.082031 99.011719 171.546875 99.484375 171.992188 99.96875 C 170.949219 101.09375 169.847656 102.167969 168.714844 103.191406 C 166.753906 104.96875 164.671875 106.609375 162.644531 108.3125 C 161.3125 109.433594 159.953125 110.53125 158.609375 111.640625 C 157.257812 112.753906 155.910156 113.871094 154.542969 114.96875 C 152.4375 116.660156 150.316406 118.332031 148.222656 120.039062 C 147.648438 120.511719 147.078125 120.984375 146.507812 121.460938 C 146.503906 121.460938 146.503906 121.464844 146.5 121.464844 C 146.484375 121.449219 146.472656 121.433594 146.457031 121.417969 Z M 146.875 123.414062 C 146.863281 123.433594 146.851562 123.449219 146.839844 123.46875 C 146.847656 123.375 146.855469 123.285156 146.859375 123.195312 C 146.859375 123.148438 146.855469 123.101562 146.855469 123.058594 C 146.910156 123.109375 146.960938 123.15625 147.015625 123.207031 C 146.957031 123.269531 146.910156 123.335938 146.875 123.414062 Z M 173.042969 97.289062 C 173.300781 97.484375 173.53125 97.722656 173.714844 97.992188 C 173.578125 98.164062 173.453125 98.304688 173.402344 98.367188 C 173.042969 98.800781 172.671875 99.226562 172.292969 99.644531 C 172.050781 99.386719 171.800781 99.136719 171.550781 98.886719 C 171.355469 98.691406 171.15625 98.496094 170.953125 98.304688 C 171.464844 97.941406 171.996094 97.613281 172.542969 97.308594 C 172.636719 97.253906 172.734375 97.203125 172.832031 97.148438 C 172.90625 97.191406 172.976562 97.238281 173.042969 97.289062 Z M 170.324219 98.285156 C 170.183594 98.390625 170.046875 98.496094 169.90625 98.605469 C 168.933594 99.378906 167.980469 100.179688 167.039062 100.996094 C 166.003906 101.886719 165.011719 102.824219 164.007812 103.753906 C 162.992188 104.691406 161.972656 105.625 160.988281 106.597656 C 158.878906 108.6875 156.773438 110.78125 154.652344 112.859375 C 152.394531 115.070312 150.113281 117.261719 147.847656 119.464844 C 147.289062 120.007812 146.730469 120.550781 146.1875 121.109375 C 146.144531 121.058594 146.097656 121.003906 146.054688 120.953125 C 146.023438 120.917969 145.992188 120.882812 145.960938 120.847656 C 148.203125 118.757812 150.292969 116.492188 152.375 114.246094 C 154.429688 112.027344 156.445312 109.773438 158.402344 107.46875 C 160.15625 105.40625 161.875 103.269531 163.855469 101.414062 C 164.808594 100.519531 165.835938 99.707031 166.894531 98.941406 C 167.695312 98.363281 168.496094 97.804688 169.410156 97.441406 C 169.65625 97.660156 169.902344 97.886719 170.140625 98.109375 C 170.203125 98.167969 170.261719 98.226562 170.324219 98.285156 Z M 147.09375 122.6875 C 147.101562 122.691406 147.109375 122.699219 147.113281 122.707031 C 147.113281 122.710938 147.109375 122.710938 147.109375 122.710938 C 147.101562 122.707031 147.09375 122.699219 147.085938 122.691406 C 147.089844 122.691406 147.09375 122.6875 147.09375 122.6875 Z M 144.925781 124.519531 C 144.917969 124.570312 144.90625 124.625 144.898438 124.675781 C 144.847656 124.703125 144.796875 124.730469 144.75 124.753906 C 144.71875 124.75 144.6875 124.742188 144.65625 124.734375 C 144.664062 124.644531 144.671875 124.554688 144.675781 124.464844 C 144.757812 124.484375 144.839844 124.503906 144.925781 124.519531 Z M 145.699219 124.34375 C 145.648438 124.363281 145.597656 124.386719 145.546875 124.402344 C 145.417969 124.386719 145.289062 124.363281 145.164062 124.339844 C 145.171875 124.304688 145.175781 124.269531 145.179688 124.234375 C 145.347656 124.28125 145.519531 124.316406 145.699219 124.34375 Z M 145.128906 124.570312 C 145.132812 124.566406 145.132812 124.5625 145.132812 124.558594 C 145.136719 124.558594 145.140625 124.558594 145.148438 124.5625 C 145.140625 124.5625 145.136719 124.566406 145.128906 124.570312 Z M 143.640625 125.617188 C 143.632812 125.613281 143.621094 125.613281 143.613281 125.609375 C 143.617188 125.59375 143.625 125.578125 143.628906 125.558594 C 143.632812 125.578125 143.636719 125.597656 143.640625 125.617188 Z M 143.710938 125.597656 C 143.707031 125.539062 143.703125 125.480469 143.695312 125.417969 C 143.710938 125.46875 143.722656 125.515625 143.738281 125.5625 C 143.730469 125.574219 143.71875 125.585938 143.710938 125.597656 Z M 143.894531 125.15625 C 143.875 125.253906 143.851562 125.355469 143.824219 125.457031 C 143.789062 125.339844 143.753906 125.226562 143.710938 125.117188 C 143.714844 125.082031 143.71875 125.046875 143.722656 125.011719 C 143.769531 125.070312 143.828125 125.117188 143.894531 125.15625 Z M 142.789062 124.140625 C 142.59375 123.902344 142.367188 123.683594 142.109375 123.507812 C 142.113281 123.507812 142.117188 123.507812 142.121094 123.503906 C 142.140625 123.5 142.15625 123.496094 142.175781 123.488281 C 142.476562 123.722656 142.734375 124.003906 142.9375 124.324219 C 142.921875 124.304688 142.90625 124.289062 142.890625 124.269531 C 142.859375 124.226562 142.824219 124.183594 142.789062 124.140625 Z M 144.292969 125.046875 C 144.257812 125.042969 144.222656 125.039062 144.1875 125.027344 C 144.164062 125.023438 144.148438 125.019531 144.128906 125.011719 C 144.136719 124.953125 144.148438 124.894531 144.152344 124.839844 C 144.242188 124.863281 144.332031 124.886719 144.421875 124.910156 C 144.417969 124.925781 144.417969 124.941406 144.414062 124.960938 C 144.375 124.988281 144.332031 125.015625 144.292969 125.046875 Z M 146.261719 124.085938 C 146.234375 124.101562 146.210938 124.117188 146.183594 124.132812 C 146.160156 124.136719 146.121094 124.160156 146.09375 124.175781 C 146.070312 124.175781 146.046875 124.171875 146.023438 124.171875 C 146.042969 124.066406 146.058594 123.964844 146.070312 123.863281 C 146.140625 123.875 146.210938 123.890625 146.285156 123.902344 C 146.28125 123.964844 146.269531 124.023438 146.261719 124.085938 Z M 169.84375 97.285156 C 170.457031 97.09375 171.089844 96.984375 171.722656 96.890625 C 171.945312 96.855469 172.164062 96.878906 172.367188 96.941406 C 171.785156 97.28125 171.214844 97.644531 170.667969 98.035156 C 170.394531 97.78125 170.121094 97.53125 169.84375 97.285156 Z M 145.398438 120.203125 C 147.652344 117.878906 149.722656 115.355469 151.742188 112.828125 C 153.730469 110.34375 155.636719 107.792969 157.445312 105.175781 C 158.238281 104.023438 159.0625 102.886719 159.925781 101.785156 C 160.824219 100.644531 161.773438 99.53125 162.894531 98.597656 C 163.90625 97.753906 165.039062 97.003906 166.203125 96.382812 C 166.503906 96.226562 166.800781 96.089844 167.109375 95.984375 C 167.144531 95.996094 167.179688 96.007812 167.214844 96.019531 C 167.578125 96.152344 167.929688 96.277344 168.222656 96.480469 C 168.519531 96.6875 168.800781 96.914062 169.078125 97.148438 C 168.835938 97.25 168.597656 97.363281 168.371094 97.492188 C 167.347656 98.070312 166.398438 98.800781 165.480469 99.523438 C 164.414062 100.355469 163.449219 101.277344 162.480469 102.21875 C 161.472656 103.207031 160.507812 104.242188 159.589844 105.3125 C 157.65625 107.5625 155.757812 109.84375 153.789062 112.066406 C 151.703125 114.425781 149.5625 116.738281 147.414062 119.042969 C 146.890625 119.601562 146.363281 120.160156 145.855469 120.730469 C 145.6875 120.550781 145.507812 120.382812 145.320312 120.222656 C 145.34375 120.230469 145.375 120.226562 145.398438 120.203125 Z M 145.019531 120.871094 C 145.027344 120.882812 145.035156 120.894531 145.046875 120.910156 C 145.035156 120.90625 145.027344 120.902344 145.019531 120.902344 C 145.019531 120.890625 145.019531 120.882812 145.019531 120.871094 Z M 144.660156 121.195312 C 144.636719 121.164062 144.609375 121.132812 144.582031 121.101562 C 144.582031 121.09375 144.582031 121.082031 144.582031 121.070312 C 144.582031 121.027344 144.585938 120.984375 144.589844 120.9375 C 144.613281 120.941406 144.640625 120.945312 144.664062 120.949219 C 144.683594 121.03125 144.699219 121.109375 144.710938 121.191406 C 144.695312 121.191406 144.679688 121.195312 144.660156 121.195312 Z M 144.714844 121.238281 C 144.71875 121.246094 144.71875 121.253906 144.71875 121.261719 C 144.710938 121.253906 144.707031 121.25 144.703125 121.242188 C 144.707031 121.242188 144.710938 121.238281 144.714844 121.238281 Z M 144.582031 121.207031 C 144.582031 121.199219 144.582031 121.191406 144.582031 121.1875 C 144.589844 121.191406 144.59375 121.199219 144.597656 121.203125 C 144.59375 121.207031 144.589844 121.207031 144.582031 121.207031 Z M 144.621094 120.777344 C 144.628906 120.796875 144.632812 120.8125 144.636719 120.832031 C 144.625 120.832031 144.609375 120.828125 144.597656 120.828125 C 144.601562 120.8125 144.601562 120.800781 144.605469 120.785156 C 144.609375 120.785156 144.617188 120.78125 144.621094 120.777344 Z M 144.261719 120.882812 C 144.273438 120.878906 144.285156 120.875 144.292969 120.871094 C 144.324219 120.863281 144.359375 120.855469 144.386719 120.851562 C 144.402344 120.847656 144.417969 120.84375 144.429688 120.839844 C 144.410156 120.863281 144.402344 120.898438 144.433594 120.90625 C 144.441406 120.910156 144.453125 120.910156 144.460938 120.914062 C 144.457031 120.945312 144.453125 120.976562 144.453125 121.011719 C 144.449219 121.015625 144.445312 121.027344 144.449219 121.03125 C 144.453125 121.042969 144.449219 121.054688 144.449219 121.066406 C 144.394531 121 144.328125 120.9375 144.261719 120.882812 Z M 144.761719 121.183594 C 144.761719 121.109375 144.761719 121.039062 144.753906 120.972656 C 144.800781 120.980469 144.851562 120.992188 144.902344 121.003906 C 144.90625 121.027344 144.90625 121.046875 144.90625 121.070312 C 144.90625 121.101562 144.902344 121.132812 144.902344 121.167969 C 144.855469 121.171875 144.808594 121.175781 144.761719 121.183594 Z M 146.355469 122.558594 C 146.414062 122.621094 146.472656 122.679688 146.535156 122.742188 C 146.488281 122.730469 146.4375 122.714844 146.390625 122.703125 C 146.378906 122.679688 146.371094 122.652344 146.359375 122.628906 C 146.359375 122.605469 146.359375 122.582031 146.355469 122.558594 Z M 143.515625 124.628906 C 143.519531 124.636719 143.519531 124.644531 143.519531 124.652344 C 143.515625 124.640625 143.511719 124.628906 143.503906 124.617188 C 143.507812 124.621094 143.511719 124.625 143.515625 124.628906 Z M 141.992188 127.109375 C 141.949219 127.101562 141.90625 127.089844 141.863281 127.078125 C 141.871094 126.972656 141.882812 126.863281 141.890625 126.753906 C 142.019531 126.777344 142.148438 126.789062 142.277344 126.792969 C 142.277344 126.800781 142.277344 126.808594 142.277344 126.816406 C 142.179688 126.910156 142.085938 127.011719 141.992188 127.109375 Z M 140.78125 128.558594 C 140.757812 128.585938 140.734375 128.617188 140.714844 128.644531 C 140.71875 128.613281 140.722656 128.582031 140.726562 128.550781 C 140.742188 128.554688 140.761719 128.554688 140.78125 128.558594 Z M 141 128.066406 C 140.976562 128.164062 140.945312 128.261719 140.917969 128.359375 C 140.859375 128.351562 140.804688 128.34375 140.75 128.332031 C 140.757812 128.238281 140.769531 128.140625 140.777344 128.046875 C 140.851562 128.054688 140.925781 128.0625 141 128.066406 Z M 141.628906 127.253906 C 141.621094 127.347656 141.613281 127.445312 141.601562 127.539062 C 141.507812 127.648438 141.417969 127.757812 141.324219 127.867188 C 141.304688 127.867188 141.28125 127.867188 141.261719 127.867188 C 141.3125 127.640625 141.347656 127.414062 141.371094 127.191406 C 141.457031 127.210938 141.542969 127.234375 141.628906 127.253906 Z M 139.835938 129.867188 C 139.816406 129.894531 139.792969 129.925781 139.773438 129.953125 C 139.777344 129.921875 139.785156 129.890625 139.789062 129.859375 C 139.804688 129.863281 139.820312 129.863281 139.835938 129.867188 Z M 140.339844 129.15625 C 140.21875 129.324219 140.097656 129.492188 139.980469 129.660156 C 139.925781 129.65625 139.875 129.652344 139.824219 129.644531 C 139.855469 129.464844 139.886719 129.285156 139.914062 129.109375 C 140.054688 129.128906 140.195312 129.144531 140.339844 129.15625 Z M 159.804688 117.207031 C 159.789062 117.214844 159.773438 117.222656 159.804688 117.207031 Z M 173.648438 108.132812 C 172.746094 109.226562 171.558594 110.074219 170.378906 110.84375 C 169.214844 111.605469 168.019531 112.339844 166.816406 113.039062 C 165.976562 113.53125 165.097656 113.964844 164.222656 114.398438 C 162.484375 115.261719 160.71875 116.074219 158.996094 116.96875 C 156.34375 118.34375 153.542969 119.402344 150.878906 120.75 C 151.160156 120.585938 151.449219 120.421875 151.734375 120.265625 C 153.0625 119.539062 154.414062 118.859375 155.753906 118.15625 C 156.824219 117.59375 157.863281 116.976562 158.917969 116.382812 C 159.648438 115.972656 160.394531 115.589844 161.132812 115.195312 C 162.875 114.269531 164.613281 113.347656 166.265625 112.273438 C 168.511719 110.816406 170.953125 109.335938 172.53125 107.125 C 173.226562 106.152344 173.816406 105.097656 174.300781 104.007812 C 174.382812 104.796875 174.3125 105.613281 174.191406 106.363281 C 174.109375 106.867188 173.996094 107.371094 173.855469 107.863281 C 173.789062 107.953125 173.71875 108.042969 173.648438 108.132812 Z M 173.964844 96.714844 C 174.003906 96.71875 174.035156 96.726562 174.066406 96.738281 C 174.121094 96.796875 174.179688 96.851562 174.238281 96.910156 C 174.28125 97.085938 174.152344 97.355469 173.984375 97.613281 C 173.949219 97.570312 173.914062 97.527344 173.875 97.484375 C 173.867188 97.472656 173.855469 97.460938 173.847656 97.449219 C 173.679688 97.257812 173.5 97.066406 173.316406 96.886719 C 173.515625 96.78125 173.738281 96.683594 173.964844 96.714844 Z M 167.8125 95.804688 C 168.582031 95.679688 169.367188 95.703125 170.140625 95.773438 C 170.65625 95.816406 171.105469 95.855469 171.566406 96.097656 C 171.777344 96.203125 171.976562 96.332031 172.167969 96.472656 C 172.085938 96.464844 172.003906 96.457031 171.921875 96.460938 C 171.652344 96.464844 171.375 96.535156 171.109375 96.585938 C 170.804688 96.640625 170.503906 96.703125 170.203125 96.78125 C 169.964844 96.839844 169.726562 96.910156 169.496094 96.992188 C 169.414062 96.921875 169.332031 96.851562 169.25 96.78125 C 168.980469 96.558594 168.707031 96.339844 168.417969 96.140625 C 168.214844 96.003906 168 95.902344 167.773438 95.8125 C 167.789062 95.808594 167.800781 95.808594 167.8125 95.804688 Z M 163.832031 95.429688 C 164.171875 95.40625 164.519531 95.421875 164.863281 95.457031 C 165.429688 95.519531 165.988281 95.640625 166.535156 95.800781 C 165.875 96.085938 165.253906 96.46875 164.644531 96.859375 C 163.457031 97.621094 162.394531 98.488281 161.386719 99.472656 C 160.316406 100.519531 159.355469 101.683594 158.46875 102.886719 C 157.582031 104.089844 156.757812 105.335938 155.898438 106.558594 C 154.960938 107.882812 154.007812 109.195312 153.03125 110.492188 C 151.042969 113.132812 148.960938 115.703125 146.835938 118.234375 C 146.3125 118.855469 145.785156 119.472656 145.273438 120.105469 C 145.253906 120.128906 145.253906 120.15625 145.261719 120.179688 C 145.246094 120.164062 145.226562 120.148438 145.207031 120.132812 C 145.21875 120.050781 145.214844 119.972656 145.191406 119.894531 C 145.175781 119.828125 145.144531 119.78125 145.105469 119.742188 C 147.464844 117.136719 149.601562 114.316406 151.65625 111.472656 C 152.683594 110.050781 153.679688 108.605469 154.648438 107.144531 C 155.578125 105.730469 156.449219 104.289062 157.335938 102.851562 C 158.171875 101.503906 159.054688 100.175781 160.039062 98.929688 C 161 97.710938 162.054688 96.621094 163.34375 95.75 C 163.507812 95.640625 163.667969 95.535156 163.832031 95.429688 Z M 144.039062 121.378906 C 144.039062 121.40625 144.035156 121.433594 144.035156 121.460938 C 144.035156 121.503906 144.03125 121.546875 144.03125 121.59375 C 143.941406 121.617188 143.855469 121.644531 143.769531 121.671875 C 143.769531 121.625 143.769531 121.574219 143.773438 121.523438 C 143.777344 121.488281 143.777344 121.457031 143.78125 121.421875 C 143.867188 121.410156 143.953125 121.394531 144.039062 121.378906 Z M 143.292969 122.273438 C 143.261719 122.285156 143.226562 122.296875 143.195312 122.3125 C 143.171875 122.320312 143.144531 122.332031 143.121094 122.339844 C 143.1875 122.242188 143.25 122.140625 143.3125 122.035156 C 143.304688 122.109375 143.296875 122.183594 143.296875 122.253906 C 143.296875 122.261719 143.296875 122.265625 143.292969 122.273438 Z M 142.691406 123.011719 C 142.761719 122.980469 142.835938 122.945312 142.90625 122.914062 C 142.90625 122.921875 142.902344 122.929688 142.898438 122.941406 C 142.894531 122.972656 142.941406 122.984375 142.953125 122.957031 C 142.964844 122.929688 142.976562 122.902344 142.984375 122.875 C 143.078125 122.832031 143.167969 122.785156 143.257812 122.738281 C 143.273438 122.734375 143.261719 122.710938 143.246094 122.71875 C 143.167969 122.742188 143.089844 122.769531 143.011719 122.796875 C 143.035156 122.707031 143.050781 122.613281 143.0625 122.519531 C 143.0625 122.511719 143.0625 122.507812 143.0625 122.5 C 143.121094 122.476562 143.179688 122.453125 143.238281 122.429688 C 143.253906 122.421875 143.273438 122.414062 143.289062 122.40625 C 143.289062 122.4375 143.285156 122.472656 143.300781 122.5 C 143.3125 122.527344 143.351562 122.542969 143.371094 122.511719 C 143.394531 122.480469 143.394531 122.445312 143.398438 122.402344 C 143.398438 122.386719 143.402344 122.371094 143.402344 122.355469 C 143.457031 122.335938 143.511719 122.3125 143.566406 122.289062 C 143.664062 122.246094 143.785156 122.207031 143.847656 122.121094 C 143.855469 122.117188 143.851562 122.105469 143.84375 122.105469 C 143.734375 122.085938 143.625 122.144531 143.527344 122.183594 C 143.488281 122.195312 143.453125 122.210938 143.414062 122.226562 C 143.421875 122.160156 143.425781 122.09375 143.429688 122.03125 C 143.429688 121.996094 143.429688 121.960938 143.433594 121.925781 C 143.515625 121.898438 143.597656 121.867188 143.675781 121.839844 C 143.679688 121.871094 143.683594 121.898438 143.691406 121.925781 C 143.699219 121.960938 143.761719 121.957031 143.765625 121.917969 C 143.769531 121.882812 143.769531 121.84375 143.769531 121.808594 C 143.863281 121.777344 143.957031 121.746094 144.046875 121.714844 C 144.0625 121.726562 144.085938 121.726562 144.09375 121.703125 C 144.097656 121.703125 144.097656 121.699219 144.097656 121.695312 C 144.21875 121.652344 144.34375 121.613281 144.457031 121.546875 C 144.484375 121.53125 144.464844 121.488281 144.433594 121.488281 C 144.332031 121.5 144.230469 121.53125 144.128906 121.5625 C 144.132812 121.535156 144.136719 121.503906 144.144531 121.476562 C 144.152344 121.4375 144.15625 121.394531 144.164062 121.355469 C 144.203125 121.347656 144.246094 121.339844 144.285156 121.332031 C 144.347656 121.316406 144.40625 121.304688 144.46875 121.292969 C 144.484375 121.363281 144.492188 121.4375 144.527344 121.496094 C 144.542969 121.519531 144.578125 121.507812 144.582031 121.484375 C 144.585938 121.464844 144.585938 121.441406 144.585938 121.421875 C 144.648438 121.539062 144.695312 121.664062 144.742188 121.789062 C 144.753906 121.820312 144.808594 121.789062 144.800781 121.757812 C 144.765625 121.578125 144.695312 121.414062 144.601562 121.265625 C 144.613281 121.261719 144.628906 121.261719 144.640625 121.257812 C 144.691406 121.316406 144.734375 121.375 144.792969 121.425781 C 144.804688 121.4375 144.832031 121.410156 144.824219 121.394531 C 144.804688 121.367188 144.78125 121.335938 144.757812 121.308594 C 144.761719 121.28125 144.761719 121.253906 144.761719 121.226562 C 144.808594 121.214844 144.855469 121.207031 144.898438 121.191406 C 144.898438 121.234375 144.894531 121.273438 144.894531 121.3125 C 144.894531 121.359375 144.96875 121.339844 144.980469 121.292969 C 144.992188 121.25 144.996094 121.210938 145.003906 121.167969 C 145.007812 121.167969 145.011719 121.164062 145.015625 121.164062 C 145.019531 121.164062 145.019531 121.15625 145.015625 121.15625 C 145.011719 121.15625 145.007812 121.15625 145.003906 121.15625 C 145.007812 121.121094 145.011719 121.082031 145.011719 121.046875 C 145.011719 121.042969 145.011719 121.039062 145.011719 121.039062 C 145.050781 121.050781 145.085938 121.058594 145.121094 121.070312 C 145.136719 121.078125 145.15625 121.085938 145.171875 121.089844 C 145.382812 121.390625 145.601562 121.683594 145.832031 121.96875 C 145.980469 122.144531 146.136719 122.320312 146.292969 122.492188 C 146.292969 122.496094 146.292969 122.5 146.292969 122.507812 C 146.269531 122.472656 146.246094 122.445312 146.21875 122.417969 C 146.207031 122.402344 146.175781 122.421875 146.179688 122.445312 C 146.191406 122.507812 146.199219 122.566406 146.222656 122.625 C 146.234375 122.648438 146.242188 122.667969 146.25 122.691406 C 146.21875 122.707031 146.191406 122.746094 146.222656 122.765625 C 146.242188 122.777344 146.265625 122.789062 146.289062 122.796875 C 146.292969 122.808594 146.296875 122.820312 146.300781 122.835938 C 146.300781 122.847656 146.300781 122.859375 146.300781 122.875 C 146.304688 122.941406 146.308594 123.011719 146.308594 123.082031 C 146.253906 123.109375 146.203125 123.167969 146.222656 123.230469 C 146.238281 123.285156 146.253906 123.339844 146.265625 123.398438 C 146.207031 123.386719 146.148438 123.375 146.089844 123.363281 C 146.082031 123.070312 146.039062 122.78125 145.960938 122.511719 C 145.925781 122.394531 145.714844 122.507812 145.75 122.625 C 145.8125 122.847656 145.851562 123.078125 145.867188 123.320312 C 145.679688 123.28125 145.496094 123.242188 145.316406 123.199219 C 145.328125 123.097656 145.339844 122.996094 145.347656 122.894531 C 145.355469 122.839844 145.289062 122.8125 145.234375 122.828125 C 145.167969 122.847656 145.132812 122.90625 145.125 122.960938 C 145.113281 123.101562 145.097656 123.246094 145.078125 123.390625 C 144.976562 123.359375 144.875 123.332031 144.773438 123.300781 C 144.652344 123.261719 144.550781 123.46875 144.671875 123.503906 C 144.796875 123.546875 144.925781 123.582031 145.050781 123.617188 C 145.039062 123.726562 145.023438 123.835938 145.011719 123.945312 C 144.890625 123.902344 144.773438 123.855469 144.664062 123.800781 C 144.65625 123.71875 144.644531 123.636719 144.632812 123.554688 C 144.617188 123.433594 144.394531 123.496094 144.414062 123.621094 C 144.417969 123.65625 144.421875 123.695312 144.425781 123.734375 C 144.347656 123.769531 144.289062 123.878906 144.367188 123.917969 C 144.394531 123.933594 144.421875 123.945312 144.445312 123.957031 C 144.453125 124.03125 144.457031 124.105469 144.457031 124.179688 C 144.355469 124.152344 144.257812 124.125 144.15625 124.09375 C 144.152344 124.027344 144.144531 123.957031 144.132812 123.890625 C 144.109375 123.769531 143.890625 123.835938 143.910156 123.957031 C 143.914062 123.976562 143.914062 123.996094 143.917969 124.015625 C 143.847656 123.992188 143.777344 123.96875 143.710938 123.945312 C 143.59375 123.902344 143.492188 124.109375 143.609375 124.152344 C 143.71875 124.191406 143.832031 124.230469 143.945312 124.265625 C 143.949219 124.355469 143.953125 124.449219 143.953125 124.542969 C 143.878906 124.515625 143.808594 124.492188 143.738281 124.464844 C 143.734375 124.4375 143.734375 124.410156 143.734375 124.386719 C 143.722656 124.257812 143.5 124.324219 143.511719 124.449219 C 143.511719 124.460938 143.511719 124.472656 143.511719 124.484375 C 143.488281 124.511719 143.480469 124.542969 143.484375 124.570312 C 143.417969 124.441406 143.351562 124.3125 143.28125 124.183594 C 143.179688 124.007812 143.066406 123.832031 142.925781 123.675781 C 142.921875 123.671875 142.921875 123.667969 142.917969 123.664062 C 142.816406 123.554688 142.707031 123.453125 142.582031 123.371094 C 142.648438 123.351562 142.714844 123.328125 142.78125 123.304688 C 142.796875 123.300781 142.792969 123.273438 142.777344 123.277344 C 142.707031 123.292969 142.632812 123.300781 142.566406 123.316406 C 142.546875 123.320312 142.53125 123.324219 142.511719 123.328125 C 142.449219 123.292969 142.382812 123.261719 142.3125 123.234375 C 142.332031 123.21875 142.351562 123.203125 142.371094 123.1875 C 142.394531 123.164062 142.421875 123.144531 142.445312 123.121094 C 142.527344 123.085938 142.609375 123.046875 142.691406 123.011719 Z M 127.730469 137.332031 C 127.761719 137.511719 127.8125 137.683594 127.875 137.847656 C 127.785156 137.78125 127.699219 137.714844 127.617188 137.644531 C 127.582031 137.609375 127.542969 137.578125 127.507812 137.542969 C 127.582031 137.472656 127.65625 137.402344 127.730469 137.332031 Z M 127.375 137.410156 C 127.34375 137.371094 127.316406 137.332031 127.289062 137.289062 C 127.289062 137.292969 127.285156 137.289062 127.285156 137.285156 C 127.28125 137.277344 127.273438 137.269531 127.269531 137.261719 C 127.261719 137.253906 127.257812 137.242188 127.253906 137.234375 C 127.246094 137.21875 127.234375 137.207031 127.226562 137.191406 C 127.21875 137.175781 127.210938 137.164062 127.203125 137.148438 C 127.183594 137.097656 127.167969 137.042969 127.15625 136.988281 C 127.335938 136.914062 127.511719 136.8125 127.667969 136.683594 C 127.667969 136.828125 127.675781 136.96875 127.695312 137.105469 C 127.589844 137.210938 127.484375 137.3125 127.378906 137.410156 C 127.378906 137.410156 127.378906 137.410156 127.375 137.410156 Z M 132.734375 138.742188 C 134.171875 137.800781 135.515625 136.707031 136.703125 135.46875 C 137.929688 134.1875 139.042969 132.816406 140.035156 131.398438 C 140.523438 130.703125 140.992188 130 141.5 129.316406 C 141.75 128.976562 142.007812 128.644531 142.277344 128.316406 C 142.3125 128.273438 142.488281 128.0625 142.359375 128.21875 C 142.421875 128.140625 142.496094 128.0625 142.566406 127.984375 C 142.710938 127.820312 142.863281 127.660156 143.019531 127.503906 C 143.308594 127.214844 143.617188 126.9375 143.941406 126.675781 C 144.074219 126.570312 144.160156 126.414062 144.195312 126.257812 C 144.203125 126.246094 144.214844 126.234375 144.222656 126.222656 C 144.226562 126.214844 144.230469 126.214844 144.230469 126.214844 C 144.292969 126.160156 144.351562 126.109375 144.410156 126.054688 C 144.464844 126.019531 144.511719 125.988281 144.558594 125.957031 C 144.597656 125.9375 144.636719 125.914062 144.671875 125.894531 C 144.675781 125.890625 144.679688 125.890625 144.683594 125.890625 C 144.765625 125.855469 144.84375 125.820312 144.925781 125.785156 C 145.101562 125.707031 145.273438 125.632812 145.453125 125.566406 C 146.144531 125.3125 146.878906 125.042969 147.4375 124.476562 C 147.621094 124.285156 147.753906 124.097656 147.871094 123.878906 C 147.902344 123.824219 147.925781 123.765625 147.949219 123.707031 C 149.441406 122.777344 151.039062 122.050781 152.683594 121.433594 C 154.261719 120.839844 155.867188 120.324219 157.4375 119.710938 C 158.390625 119.335938 159.316406 118.898438 160.269531 118.527344 C 161.277344 118.132812 162.292969 117.761719 163.304688 117.375 C 164.261719 117.003906 165.234375 116.640625 166.160156 116.195312 C 166.671875 115.953125 167.164062 115.671875 167.660156 115.40625 C 168.300781 115.066406 168.9375 114.722656 169.5625 114.355469 C 170.75 113.65625 171.960938 112.824219 172.796875 111.714844 C 173.546875 110.71875 174.007812 109.5 174.34375 108.308594 C 174.382812 108.25 174.425781 108.191406 174.46875 108.132812 C 174.835938 107.585938 175.164062 107.007812 175.453125 106.414062 C 176.074219 105.136719 176.566406 103.765625 176.800781 102.363281 C 176.980469 101.292969 177.0625 100.054688 176.535156 99.0625 C 176.054688 98.15625 175.3125 97.382812 174.589844 96.660156 C 174.589844 96.65625 174.585938 96.65625 174.585938 96.652344 C 174.523438 96.542969 174.433594 96.445312 174.308594 96.382812 C 173.636719 95.726562 172.929688 95.101562 172.183594 94.539062 C 171.914062 94.335938 171.640625 94.132812 171.339844 93.976562 C 171.167969 93.890625 170.976562 93.84375 170.789062 93.792969 C 170.394531 93.6875 169.992188 93.601562 169.585938 93.539062 C 168.761719 93.417969 167.910156 93.382812 167.085938 93.519531 C 166.480469 93.617188 165.925781 93.851562 165.382812 94.117188 C 164.8125 94.398438 164.253906 94.707031 163.707031 95.046875 C 163.464844 95.070312 163.222656 95.113281 162.988281 95.179688 C 162.335938 95.363281 161.707031 95.652344 161.105469 95.964844 C 160.460938 96.300781 159.835938 96.671875 159.25 97.105469 C 158.042969 97.992188 157.070312 99.1875 156.257812 100.429688 C 155.425781 101.707031 154.730469 103.058594 154.042969 104.414062 C 153.265625 105.953125 152.445312 107.472656 151.585938 108.964844 C 149.847656 111.980469 147.929688 114.894531 145.902344 117.730469 C 145.449219 118.367188 144.988281 118.996094 144.535156 119.636719 C 144.433594 119.652344 144.328125 119.679688 144.234375 119.714844 C 144.027344 119.789062 143.816406 119.914062 143.632812 120.054688 C 143.207031 120.386719 142.863281 120.796875 142.589844 121.238281 C 142.511719 121.363281 142.441406 121.488281 142.371094 121.617188 C 142.34375 121.664062 142.316406 121.710938 142.292969 121.757812 C 142.382812 121.570312 142.300781 121.742188 142.273438 121.785156 C 142.160156 121.976562 142.03125 122.164062 141.90625 122.351562 C 141.855469 122.425781 141.796875 122.5 141.738281 122.574219 C 141.734375 122.574219 141.671875 122.644531 141.660156 122.65625 C 141.621094 122.695312 141.582031 122.730469 141.539062 122.761719 C 141.53125 122.769531 141.464844 122.820312 141.457031 122.828125 C 141.421875 122.851562 141.382812 122.871094 141.347656 122.894531 C 141.285156 122.929688 141.226562 122.964844 141.164062 123 C 141.070312 123.035156 140.976562 123.089844 140.890625 123.167969 C 140.808594 123.234375 140.730469 123.304688 140.648438 123.371094 C 140.605469 123.40625 140.566406 123.4375 140.523438 123.472656 C 140.503906 123.488281 140.367188 123.601562 140.488281 123.5 C 140.328125 123.632812 140.148438 123.753906 139.976562 123.871094 C 139.625 124.109375 139.265625 124.328125 138.898438 124.535156 C 138.714844 124.636719 138.527344 124.738281 138.34375 124.832031 C 138.3125 124.851562 138.28125 124.867188 138.25 124.882812 C 138.234375 124.890625 138.167969 124.921875 138.15625 124.929688 C 138.0625 124.976562 137.964844 125.023438 137.871094 125.070312 C 137.488281 125.257812 137.101562 125.433594 136.714844 125.613281 C 135.945312 125.964844 135.171875 126.304688 134.410156 126.691406 C 133.601562 127.097656 132.804688 127.550781 132.023438 128.027344 C 130.59375 128.894531 129.238281 129.898438 128.015625 131.058594 C 127.417969 131.628906 126.796875 132.230469 126.359375 132.90625 C 125.96875 133.519531 125.699219 134.160156 125.570312 134.800781 C 125.328125 135.984375 125.546875 137.144531 126.09375 138.015625 C 126.242188 138.253906 126.40625 138.460938 126.613281 138.644531 C 126.824219 138.832031 127.058594 139 127.308594 139.144531 C 127.773438 139.417969 128.3125 139.601562 128.890625 139.691406 C 130.105469 139.878906 131.503906 139.546875 132.734375 138.742188 " fill-opacity="1" fill-rule="nonzero"/></g><path fill="rgb(0%, 0%, 0%)" d="M 127.242188 133.417969 C 127.226562 133.445312 127.207031 133.46875 127.1875 133.496094 C 127.234375 133.433594 127.246094 133.414062 127.242188 133.417969 " fill-opacity="1" fill-rule="nonzero"/><path fill="rgb(0%, 0%, 0%)" d="M 127.253906 137.234375 C 127.269531 137.25 127.277344 137.269531 127.285156 137.285156 C 127.285156 137.289062 127.289062 137.289062 127.289062 137.289062 C 127.261719 137.222656 127.25 137.21875 127.253906 137.234375 " fill-opacity="1" fill-rule="nonzero"/><path fill="rgb(0%, 0%, 0%)" d="M 129.007812 138.382812 C 129.011719 138.382812 129.011719 138.382812 129.015625 138.382812 C 129.050781 138.394531 129.128906 138.40625 129.007812 138.382812 " fill-opacity="1" fill-rule="nonzero"/><path fill="rgb(0%, 0%, 0%)" d="M 131.121094 138.34375 C 130.980469 138.375 131.074219 138.359375 131.121094 138.34375 " fill-opacity="1" fill-rule="nonzero"/><path fill="rgb(0%, 0%, 0%)" d="M 129.988281 133.820312 C 129.988281 133.667969 129.980469 133.511719 130 133.351562 C 130.023438 133.191406 130.0625 133.027344 130.125 132.867188 C 130.140625 132.832031 130.082031 132.832031 130.066406 132.863281 C 129.980469 133.03125 129.921875 133.199219 129.890625 133.371094 C 129.859375 133.542969 129.851562 133.714844 129.898438 133.863281 C 129.910156 133.910156 129.988281 133.867188 129.988281 133.820312 " fill-opacity="1" fill-rule="nonzero"/><path fill="rgb(0%, 0%, 0%)" d="M 130.25 133.101562 C 130.25 133.121094 130.25 133.140625 130.253906 133.160156 C 130.257812 133.183594 130.265625 133.203125 130.28125 133.21875 C 130.300781 133.238281 130.339844 133.222656 130.347656 133.191406 C 130.355469 133.167969 130.359375 133.144531 130.359375 133.121094 C 130.359375 133.101562 130.359375 133.085938 130.355469 133.066406 C 130.355469 133.023438 130.359375 132.992188 130.367188 132.949219 C 130.378906 132.871094 130.402344 132.789062 130.441406 132.707031 C 130.464844 132.65625 130.398438 132.648438 130.375 132.691406 C 130.324219 132.78125 130.285156 132.871094 130.265625 132.960938 C 130.257812 133.007812 130.253906 133.054688 130.25 133.101562 " fill-opacity="1" fill-rule="nonzero"/><path fill="rgb(0%, 0%, 0%)" d="M 130.628906 132.78125 C 130.628906 132.796875 130.625 132.816406 130.632812 132.832031 C 130.640625 132.851562 130.671875 132.84375 130.6875 132.820312 C 130.699219 132.800781 130.703125 132.785156 130.707031 132.765625 C 130.710938 132.75 130.714844 132.734375 130.71875 132.71875 C 130.726562 132.6875 130.730469 132.652344 130.734375 132.621094 C 130.746094 132.550781 130.753906 132.480469 130.761719 132.410156 C 130.765625 132.398438 130.75 132.386719 130.734375 132.390625 C 130.71875 132.394531 130.699219 132.410156 130.699219 132.425781 C 130.683594 132.492188 130.667969 132.558594 130.652344 132.628906 C 130.644531 132.664062 130.636719 132.699219 130.632812 132.730469 C 130.632812 132.75 130.632812 132.765625 130.628906 132.78125 " fill-opacity="1" fill-rule="nonzero"/><path fill="rgb(0%, 0%, 0%)" d="M 131.070312 132.410156 C 131.09375 132.429688 131.136719 132.394531 131.144531 132.367188 C 131.148438 132.347656 131.148438 132.328125 131.148438 132.308594 C 131.148438 132.304688 131.148438 132.300781 131.148438 132.296875 C 131.152344 132.285156 131.152344 132.273438 131.15625 132.265625 C 131.160156 132.25 131.164062 132.234375 131.167969 132.21875 C 131.167969 132.207031 131.171875 132.199219 131.171875 132.191406 C 131.175781 132.1875 131.175781 132.183594 131.179688 132.179688 C 131.183594 132.160156 131.191406 132.144531 131.199219 132.128906 C 131.203125 132.121094 131.207031 132.113281 131.210938 132.105469 C 131.214844 132.101562 131.214844 132.097656 131.21875 132.09375 C 131.230469 132.070312 131.242188 132.054688 131.253906 132.039062 C 131.257812 132.035156 131.265625 132.03125 131.269531 132.023438 C 131.269531 132.023438 131.273438 132.019531 131.277344 132.015625 C 131.277344 132.011719 131.28125 132.007812 131.285156 132.007812 C 131.308594 131.984375 131.320312 131.953125 131.304688 131.9375 C 131.289062 131.917969 131.257812 131.925781 131.234375 131.945312 C 131.15625 132 131.09375 132.082031 131.058594 132.164062 C 131.042969 132.210938 131.03125 132.253906 131.03125 132.296875 C 131.03125 132.316406 131.035156 132.332031 131.039062 132.351562 C 131.039062 132.359375 131.042969 132.371094 131.046875 132.378906 C 131.050781 132.394531 131.058594 132.402344 131.070312 132.410156 " fill-opacity="1" fill-rule="nonzero"/><path fill="rgb(0%, 0%, 0%)" d="M 131.78125 131.742188 C 131.789062 131.71875 131.796875 131.699219 131.804688 131.675781 C 131.808594 131.65625 131.8125 131.632812 131.820312 131.609375 C 131.828125 131.566406 131.839844 131.523438 131.847656 131.480469 C 131.855469 131.457031 131.839844 131.4375 131.816406 131.441406 C 131.792969 131.445312 131.765625 131.464844 131.761719 131.488281 C 131.75 131.53125 131.742188 131.578125 131.730469 131.621094 C 131.726562 131.644531 131.71875 131.664062 131.714844 131.6875 C 131.707031 131.710938 131.707031 131.734375 131.703125 131.757812 C 131.703125 131.777344 131.722656 131.785156 131.738281 131.78125 C 131.761719 131.777344 131.777344 131.761719 131.78125 131.742188 " fill-opacity="1" fill-rule="nonzero"/><path fill="rgb(0%, 0%, 0%)" d="M 134.019531 130.105469 C 134.03125 130.082031 134.046875 130.0625 134.046875 130.035156 C 134.046875 130.011719 134.050781 129.988281 134.050781 129.96875 C 134.050781 129.941406 134.050781 129.914062 134.050781 129.886719 C 134.046875 129.863281 134.046875 129.835938 134.03125 129.8125 C 134.03125 129.808594 134.03125 129.808594 134.03125 129.804688 C 134.027344 129.789062 134.019531 129.785156 134.007812 129.777344 C 134.007812 129.773438 134.007812 129.769531 134.003906 129.765625 C 134.003906 129.753906 133.980469 129.753906 133.972656 129.765625 C 133.972656 129.769531 133.972656 129.773438 133.972656 129.777344 C 133.960938 129.78125 133.953125 129.785156 133.945312 129.796875 C 133.945312 129.800781 133.945312 129.804688 133.941406 129.808594 C 133.941406 129.808594 133.9375 129.8125 133.9375 129.8125 C 133.929688 129.824219 133.925781 129.835938 133.921875 129.847656 C 133.921875 129.859375 133.917969 129.867188 133.917969 129.878906 C 133.914062 129.902344 133.910156 129.921875 133.90625 129.945312 C 133.90625 129.96875 133.90625 129.992188 133.902344 130.015625 C 133.902344 130.035156 133.902344 130.050781 133.910156 130.070312 C 133.914062 130.082031 133.917969 130.089844 133.921875 130.101562 C 133.941406 130.144531 134 130.144531 134.019531 130.105469 " fill-opacity="1" fill-rule="nonzero"/><path fill="rgb(0%, 0%, 0%)" d="M 134.425781 129.648438 C 134.425781 129.644531 134.429688 129.636719 134.433594 129.632812 C 134.4375 129.621094 134.4375 129.613281 134.4375 129.601562 C 134.441406 129.589844 134.445312 129.578125 134.445312 129.5625 C 134.445312 129.546875 134.445312 129.53125 134.441406 129.515625 C 134.441406 129.503906 134.441406 129.488281 134.4375 129.472656 C 134.4375 129.457031 134.425781 129.445312 134.410156 129.445312 C 134.390625 129.445312 134.378906 129.457031 134.375 129.472656 C 134.371094 129.484375 134.367188 129.5 134.363281 129.511719 C 134.359375 129.527344 134.355469 129.542969 134.355469 129.558594 C 134.355469 129.574219 134.355469 129.585938 134.355469 129.601562 C 134.355469 129.605469 134.351562 129.613281 134.355469 129.621094 C 134.355469 129.628906 134.359375 129.636719 134.359375 129.648438 C 134.363281 129.660156 134.378906 129.667969 134.390625 129.667969 C 134.40625 129.667969 134.417969 129.660156 134.425781 129.648438 " fill-opacity="1" fill-rule="nonzero"/><path fill="rgb(0%, 0%, 0%)" d="M 134.875 129.054688 C 134.878906 129.050781 134.882812 129.042969 134.882812 129.035156 C 134.882812 129.03125 134.886719 129.023438 134.886719 129.019531 C 134.886719 129.007812 134.890625 129 134.894531 128.988281 C 134.894531 128.972656 134.886719 128.957031 134.871094 128.953125 C 134.867188 128.953125 134.859375 128.953125 134.851562 128.957031 C 134.84375 128.957031 134.839844 128.964844 134.835938 128.972656 C 134.832031 128.980469 134.824219 128.988281 134.820312 129 C 134.816406 129.003906 134.8125 129.007812 134.8125 129.011719 C 134.808594 129.015625 134.808594 129.019531 134.804688 129.027344 C 134.800781 129.046875 134.792969 129.066406 134.789062 129.085938 C 134.785156 129.09375 134.785156 129.101562 134.785156 129.113281 C 134.789062 129.117188 134.796875 129.128906 134.804688 129.128906 C 134.820312 129.136719 134.839844 129.128906 134.847656 129.113281 C 134.855469 129.09375 134.867188 129.074219 134.875 129.054688 " fill-opacity="1" fill-rule="nonzero"/></svg>